<svg width="322" height="139" viewBox="0 0 322 139" fill="none" xmlns="http://www.w3.org/2000/svg">
<path d="M5.09787 116.753L-52.2532 139L-67 114.37C-60.4457 111.722 -45.3711 108.808 -33.901 108.014L24.7603 87.0914C37.869 77.2924 40.8184 73.3198 39.8353 67.4934C39.1798 63.5208 39.5079 62.4613 40.491 65.1097C43.1128 71.4659 45.7347 70.9363 56.8771 61.1372C73.263 46.8358 85.7158 32.0048 89.9761 21.9409L93.9087 12.6716L92.2703 21.676C90.9594 26.4431 84.4051 36.5071 77.523 44.1875C64.0866 58.4888 65.0697 61.402 81.7833 56.6349C87.3545 55.0458 92.5983 54.2514 93.5814 54.781C94.2368 55.5756 88.6654 57.4294 80.8002 59.2833C68.347 62.4614 26.3992 89.7399 29.6764 92.3883C30.3318 92.918 35.2476 92.3882 40.491 90.7992C45.7345 89.475 64.0866 86.5618 81.1279 84.4431C136.184 77.8221 189.274 56.8997 189.274 41.539C189.274 37.5664 194.518 30.4157 202.383 23.5299C210.904 16.1144 215.492 9.49342 215.819 4.46147C216.147 -0.0408059 216.803 -1.36504 217.786 1.5482C218.441 3.93175 221.063 6.05051 223.029 6.05051C224.996 6.05051 220.735 11.0824 213.198 17.4386C198.451 29.8861 192.552 37.5664 192.552 45.2468C192.552 51.6029 181.737 59.2833 160.108 68.5527C140.117 76.7627 142.083 78.8814 167.973 76.233C180.754 75.1736 191.896 71.2011 210.904 61.402C225.323 54.2513 239.743 45.5116 243.348 42.0687C246.953 38.361 254.49 34.9181 259.733 33.8587C269.237 32.5345 269.237 32.5345 261.372 35.1829C257.112 36.7719 248.919 41.8039 243.348 46.571C237.449 51.3381 225.979 58.4888 217.458 62.4614C208.61 66.434 202.055 70.4066 202.711 70.9362C205.988 73.3198 260.061 56.1052 273.17 48.6897C291.522 38.361 291.85 39.95 273.825 51.6029C266.288 56.37 250.229 62.991 238.432 65.9043C218.441 71.4659 217.786 71.7307 226.962 73.5846C232.533 74.3791 247.28 78.0869 259.733 81.7947C272.514 85.2376 291.522 89.2102 302.337 90.7992L322 93.1827L301.354 92.1234L280.38 91.3289L282.346 98.2147C283.985 105.101 283.985 104.836 279.069 97.1554C274.809 90.5344 269.893 87.886 251.868 83.6486C240.07 80.4705 226.306 77.2924 221.718 76.4979C213.525 75.1737 97.8412 90.5343 76.2119 96.096C70.9684 97.4202 60.8096 99.274 54.2552 100.069L5.09787 116.753Z" fill="#2A3338"/>
<path d="M287.589 27.5026C293.816 25.9135 297.421 25.6487 295.783 26.9729C293.816 28.2971 288.245 30.4158 282.674 31.4751C269.893 33.8587 272.842 31.4752 287.589 27.5026Z" fill="#2A3338"/>
</svg>
