<svg width="565" height="607" viewBox="0 0 565 607" fill="none" xmlns="http://www.w3.org/2000/svg">
<path d="M253.349 65.7537L289.814 66.6561C292.058 67.1141 294.06 67.6222 295.685 68.1729C313.723 74.4481 330.388 84.0569 334.702 91.1166C336.859 94.6464 339.604 97.3918 340.78 97.588C341.956 97.588 344.505 99.3528 346.466 101.51C348.427 103.667 350.779 105.432 351.564 105.432C352.348 105.432 348.035 100.726 341.957 94.8425C330.585 83.8609 329.408 80.3311 338.231 83.6648C340.976 84.6453 347.054 86.018 351.564 86.8024C356.269 87.3907 365.092 88.7634 370.974 89.94C376.856 91.1166 383.915 92.2932 386.66 92.6854C395.679 93.8619 415.089 102.098 423.52 107.981C430.971 113.472 435.088 117.59 429.402 113.864C428.03 113.08 428.422 114.649 430.187 117.59C431.951 120.336 434.304 125.63 435.284 129.16C437.049 135.043 437.245 135.239 437.441 130.925C437.637 128.18 436.265 123.865 434.5 121.512C429.598 114.453 432.539 114.256 441.95 120.728C452.146 127.591 483.321 144.652 485.869 144.652C486.85 144.652 483.32 142.103 477.831 139.161C472.537 136.22 460.381 128.572 450.969 122.493C432.343 110.138 433.127 111.707 428.618 81.8999L427.441 73.0754L431.951 77.1934C443.127 87.1945 441.362 83.4687 429.794 72.6832C428.87 71.8203 427.949 70.9412 427.036 70.0519L481.266 71.3939C481.803 72.4193 482.719 73.8652 483.713 75.2324C486.458 78.7621 486.654 78.7623 484.889 74.0558C484.662 73.262 484.189 72.3698 483.542 71.4503C481.95 69.1898 479.302 66.7647 476.654 65.2313C466.067 59.1522 460.381 54.6418 461.557 53.4652C462.145 52.8769 473.517 53.4652 486.85 54.8379C506.457 56.6028 512.142 57.7795 516.064 61.1132C519.397 64.0547 520.181 64.2509 518.22 61.7015C515.672 58.5639 516.456 58.3677 532.926 59.5443C542.533 60.3287 551.748 61.5053 553.316 62.2897C554.885 63.0742 558.414 63.0742 561.159 62.2897C565.668 61.1132 565.276 60.917 558.218 59.5443C553.905 58.7599 548.611 56.6028 546.454 54.8379C542.729 51.7003 542.729 51.7003 545.474 55.2301C548.219 58.956 548.023 58.956 538.611 57.7794C485.085 51.112 468.027 48.3666 462.537 45.6212C458.616 43.4641 451.95 42.4836 444.891 42.4836C432.931 42.6797 412.737 38.3655 404.306 33.8552C399.404 31.1097 399.404 31.1098 407.247 30.7176L415.089 30.3254L408.227 29.541C404.502 29.1487 387.836 25.6189 371.562 21.893C337.447 14.2451 323.722 13.6568 293.92 18.5593C268.432 22.6774 177.652 22.4813 129.812 17.971C111.97 16.4022 75.894 14.2451 49.425 13.2646C22.9561 12.4802 0.0159912 11.1075 -1.55249 10.5192C-3.12097 9.93085 -17.2378 7.38153 -32.9231 5.02832C-56.8432 1.30243 -67.2345 0.714111 -99.5855 1.30243C-120.565 1.69464 -187.621 2.08685 -211.934 2.28296C-236.246 2.28296 -270.95 1.6947 -289.38 1.10638C-313.3 0.125854 -327.613 0.518066 -340.357 2.28296C-349.965 3.85175 -367.218 6.40106 -378.59 7.96985C-389.962 9.73474 -418.196 12.088 -441.332 13.2646C-464.468 14.4412 -493.093 16.2061 -505.053 17.1866C-572.696 23.2657 -637.987 24.4423 -668.769 19.932C-680.141 18.3632 -698.179 16.5983 -708.963 15.8139C-726.609 14.8334 -731.118 15.4216 -753.078 20.7164C-766.606 24.0501 -785.429 27.58 -795.232 28.5605L-796.479 28.6909C-812.106 30.3256 -812.198 30.3353 -801.114 30.7176L-789.35 31.3058L-800.133 36.2084C-808.368 39.9343 -814.054 41.1109 -824.642 41.1109C-832.877 41.1109 -842.68 42.4836 -849.346 44.6407C-855.424 46.7978 -876.6 50.7198 -896.402 53.2691C-916.205 56.0145 -938.165 59.1522 -945.223 60.1328L-957.967 62.0936L-942.282 61.1132C-933.655 60.721 -921.499 59.7405 -915.029 58.9561L-903.657 57.7794L-906.99 63.4664L-910.323 69.1533L-905.225 63.2703C-900.52 57.5834 -898.951 57.1912 -874.639 54.4457C-860.718 52.6808 -849.15 51.8964 -849.15 52.6808C-849.15 54.0535 -856.405 60.3287 -865.62 66.8C-870.914 70.5259 -876.011 77.9778 -873.07 77.9778C-872.09 77.9778 -870.326 75.8208 -869.149 73.0754C-867.777 70.1339 -863.267 66.4078 -859.15 64.6429C-855.032 62.6819 -849.15 58.3677 -846.209 54.8379C-841.112 48.7588 -840.327 48.5627 -826.014 48.5627C-817.583 48.3666 -807.388 47.1899 -803.075 45.6212C-798.957 44.0524 -795.036 43.268 -794.644 43.6602C-793.271 45.0329 -802.094 56.799 -812.486 67.5845C-819.544 74.8403 -821.113 77.5857 -818.564 77.3896C-815.427 76.9974 -815.035 78.174 -815.427 84.057C-815.819 87.7829 -817.191 95.4309 -818.564 100.726C-820.525 108.962 -822.289 111.119 -830.132 116.217C-857.973 133.867 -871.11 142.691 -869.737 142.691C-867.777 142.691 -843.857 129.16 -831.7 121.12L-831.09 120.72C-825.572 117.104 -819.677 113.241 -817.976 112.295C-816.211 111.119 -811.702 107.981 -807.976 105.236C-801.31 100.137 -796.408 98.1762 -778.958 92.6854C-771.312 90.3322 -770.528 90.3322 -771.704 93.2737C-772.684 96.0192 -772.488 96.2152 -769.351 93.2737C-767.39 91.5089 -756.999 88.7634 -746.411 86.9985C-735.628 85.2336 -725.236 82.6843 -723.275 81.7037C-715.237 77.3895 -717.393 82.4882 -728.765 94.0581C-736.216 101.902 -737.784 104.059 -733.079 100.333C-728.961 96.9996 -722.687 90.9205 -718.766 86.4102C-714.649 81.5076 -709.355 77.7817 -705.826 76.9973C-702.492 76.2128 -693.669 73.0754 -686.415 70.1339C-678.964 66.9962 -669.749 64.4468 -665.436 64.2507C-652.495 63.4663 -641.32 64.2507 -641.32 65.8195C-641.32 66.8 -646.613 71.7026 -652.888 76.6052C-659.358 81.5077 -665.632 87.5868 -666.808 90.1361C-668.573 93.862 -668.181 93.6659 -664.848 89.3517C-661.122 84.6453 -649.358 76.0168 -646.613 76.0168C-645.045 76.0168 -647.594 99.9411 -649.75 105.432C-650.731 108.177 -651.907 112.884 -652.103 115.825C-652.888 124.258 -662.299 134.455 -678.572 144.652C-691.317 152.496 -718.57 176.028 -715.041 176.028C-714.453 176.028 -708.57 171.126 -702.1 165.243C-695.826 159.36 -685.239 151.908 -678.964 148.77C-672.494 145.436 -666.024 141.711 -664.455 140.338C-663.083 138.965 -659.554 136.024 -657.005 133.867L-652.299 129.945L-655.633 135.828L-659.162 141.711L-655.24 137.004C-652.887 134.455 -651.123 131.317 -651.123 130.141C-651.123 127.395 -636.81 118.767 -615.047 108.177L-615.046 108.177C-599.361 100.529 -599.361 100.529 -573.284 100.137C-558.776 100.137 -545.835 99.3528 -544.267 98.7645C-540.737 97.3918 -540.345 100.725 -543.678 102.294C-545.051 102.883 -544.07 103.079 -541.326 102.687C-526.817 99.9411 -515.837 99.1567 -515.837 100.922C-515.837 103.471 -525.052 108.373 -537.404 112.295C-547.011 115.237 -572.108 128.768 -580.931 135.435C-582.892 137.004 -585.245 140.73 -586.421 143.868C-588.186 149.162 -588.186 149.358 -585.441 145.633C-580.147 138.573 -573.089 131.906 -566.814 128.376C-560.736 124.65 -560.736 124.65 -559.364 129.356C-558.187 133.67 -558.187 133.67 -557.011 128.18C-556.227 122.885 -554.462 121.708 -541.326 117.198C-533.287 114.257 -522.895 110.138 -518.386 107.785C-504.661 100.726 -471.526 95.0386 -482.506 101.51C-487.604 104.648 -489.172 106.216 -498.779 117.59C-509.955 130.925 -515.837 134.847 -536.228 141.711C-559.364 149.555 -568.971 156.418 -575.441 168.576L-580.931 178.97L-573.481 170.537C-569.559 165.831 -562.893 159.948 -558.972 157.399C-552.305 153.084 -513.876 140.142 -513.876 142.103C-513.876 142.495 -516.033 145.829 -518.582 149.162C-523.876 156.222 -528.189 164.262 -526.817 164.262C-526.229 164.262 -523.876 160.732 -521.327 156.222L-516.817 148.182L-514.464 156.81L-512.112 165.243L-513.092 157.203C-513.68 151.908 -513.288 148.182 -511.523 146.417C-510.151 144.848 -508.779 142.299 -508.386 140.73C-507.406 137.004 -497.211 127.984 -488.388 123.277C-479.761 118.767 -455.645 110.727 -453.096 111.707C-451.919 112.099 -454.272 116.806 -458.193 122.1C-463.487 129.552 -464.467 132.102 -462.115 132.494C-458.586 133.278 -459.762 137.396 -466.232 146.025C-468.781 149.555 -470.154 152.496 -468.977 152.496C-467.997 152.496 -466.624 154.849 -466.232 157.791C-465.644 162.105 -465.448 161.517 -465.056 155.634C-465.056 151.123 -462.507 144.26 -459.174 138.573C-455.252 132.298 -454.076 128.964 -455.644 128.376C-459.37 127.003 -451.331 113.472 -443.488 108.177C-435.253 102.49 -433.293 102.294 -434.665 106.805C-435.254 108.766 -434.469 108.177 -432.705 105.432C-430.744 101.902 -426.234 99.1567 -418.392 96.8035C-412.118 94.8425 -405.843 92.6854 -404.471 92.2932C-403.099 91.7049 -404.079 95.4308 -407.02 101.118C-409.765 106.412 -411.922 111.707 -411.922 112.884C-411.922 115.237 -427.411 121.904 -439.959 125.042C-445.057 126.415 -449.567 128.18 -450.155 128.964C-451.331 130.729 -432.901 127.395 -423.294 124.061C-419.176 122.689 -415.843 122.101 -415.843 122.689C-415.843 123.277 -418.98 129.552 -422.901 136.612C-426.823 143.672 -428.587 148.182 -426.823 146.809C-425.254 145.437 -421.921 140.338 -419.764 135.631C-414.274 124.65 -404.863 116.806 -391.727 112.688C-385.845 110.923 -380.747 109.354 -379.963 109.354C-378.002 109.354 -390.158 137.2 -393.883 141.318C-397.021 145.044 -397.021 145.044 -393.099 143.083C-388.786 140.926 -388.786 140.926 -391.139 150.143L-393.491 159.36L-410.157 165.243C-419.176 168.576 -434.469 175.048 -444.273 179.754C-487.407 200.541 -498.387 205.443 -516.817 210.934C-530.934 215.248 -542.306 217.209 -557.011 217.994C-568.383 218.582 -579.755 219.563 -582.499 219.955C-585.244 220.347 -593.087 221.327 -599.95 222.112C-607.008 222.7 -614.458 224.661 -616.615 226.426C-618.968 228.191 -619.36 228.975 -617.596 228.387C-611.322 226.23 -584.264 222.504 -583.284 223.681C-582.5 224.269 -584.656 227.21 -587.597 230.152C-592.107 234.074 -591.519 233.878 -585.245 229.171C-577.206 223.288 -576.422 223.092 -555.835 223.092C-542.698 223.092 -535.444 223.877 -536.424 224.857C-537.601 226.034 -545.835 229.956 -554.854 233.682C-563.873 237.408 -577.01 244.075 -584.264 248.389C-598.185 256.626 -622.105 264.077 -623.282 260.548C-623.674 259.567 -625.438 260.155 -627.399 262.116C-629.556 264.274 -636.81 266.431 -648.378 267.999C-657.985 269.372 -675.631 272.51 -687.788 275.059L-709.747 279.962L-726.609 275.059C-735.824 272.314 -743.667 270.157 -744.255 270.157C-744.647 270.157 -747 266.823 -749.156 262.705C-752.882 256.233 -753.274 257.214 -749.94 265.45C-748.568 268.588 -750.137 268.588 -769.155 265.058C-772.488 264.47 -774.645 264.862 -774.645 266.038C-774.645 267.215 -771.704 268.196 -768.175 268.196C-760.332 268.392 -749.156 270.745 -727.589 277.412L-710.923 282.511L-722.687 285.648C-732.491 288.394 -762.881 305.847 -762.881 308.788C-762.881 309.769 -761.901 309.181 -746.411 299.179C-739.941 295.061 -728.962 289.963 -721.903 287.609C-714.845 285.452 -707.59 283.099 -706.022 282.511C-699.551 279.962 -708.571 287.806 -718.57 293.493C-724.06 296.826 -729.746 301.14 -731.118 303.494C-732.491 305.651 -735.628 308.396 -737.981 309.377C-741.51 310.749 -741.706 311.142 -738.765 311.142C-736.804 311.338 -732.295 308.592 -728.961 305.062C-716.217 292.316 -699.159 282.315 -686.023 279.962C-679.357 278.785 -672.102 277.412 -670.141 277.02C-663.083 275.647 -667.2 279.373 -677.592 283.687C-689.748 288.786 -698.179 297.415 -698.179 305.062C-698.179 308.592 -701.316 313.299 -708.374 320.554C-714.06 326.241 -717.59 330.948 -716.413 330.948C-715.237 330.948 -713.668 332.517 -713.276 334.281C-712.688 336.242 -712.296 335.066 -712.1 331.732C-711.904 327.222 -709.747 323.692 -704.061 318.397C-698.375 313.299 -696.218 309.769 -696.218 305.651C-696.218 301.729 -694.258 298.199 -689.552 294.081C-680.729 286.433 -654.064 276.236 -634.065 272.902C-625.046 271.529 -614.459 269.372 -610.537 268.392C-598.773 265.058 -598.773 265.646 -609.949 277.02C-616.027 283.099 -624.262 289.178 -628.967 290.943C-633.673 292.708 -637.202 294.669 -636.614 295.061C-636.222 295.454 -632.693 294.473 -628.771 292.904C-620.536 289.57 -619.948 291.139 -626.222 298.983C-634.261 308.984 -636.026 311.338 -635.045 311.338C-634.457 311.338 -628.379 304.474 -621.517 296.042L-608.969 280.942L-606.42 293.296C-602.891 309.181 -601.518 308.2 -604.459 292.12L-606.812 279.765L-597.205 270.157C-588.97 261.724 -586.029 260.155 -574.461 257.41C-557.599 253.684 -557.599 253.684 -562.109 258.783L-565.834 263.293L-560.932 259.175C-556.031 255.057 -536.032 247.409 -534.267 248.978C-532.11 251.331 -530.15 269.176 -531.522 275.451C-533.483 283.295 -547.796 305.455 -556.619 313.887C-559.952 317.025 -566.814 322.319 -571.912 325.653C-577.99 329.575 -585.048 337.027 -590.734 345.459C-603.871 364.677 -606.616 367.03 -624.458 376.247C-633.085 380.757 -643.28 387.229 -646.81 390.562C-650.339 393.896 -657.397 398.21 -662.495 399.975C-667.593 401.74 -669.945 403.309 -667.789 403.309C-661.907 403.505 -648.77 396.838 -643.476 391.151C-639.163 386.444 -610.537 372.913 -608.773 374.678C-607.4 375.855 -613.478 391.543 -618.968 401.348C-621.713 406.447 -622.889 409.192 -621.517 407.819C-617.792 404.289 -616.223 404.878 -615.243 409.78C-614.851 412.33 -614.458 410.761 -614.458 406.447C-614.458 396.053 -606.028 374.678 -597.205 362.912C-593.283 357.814 -587.597 349.97 -584.264 345.851C-580.735 340.949 -578.578 339.38 -578.578 341.341C-578.578 343.106 -577.794 344.675 -577.01 344.675C-575.245 344.675 -566.814 361.147 -566.814 364.873C-566.618 367.423 -552.305 383.895 -550.148 383.895C-549.364 383.895 -551.521 380.757 -554.658 377.228C-562.109 368.795 -572.696 346.832 -572.696 339.968C-572.696 334.281 -565.834 327.026 -560.54 327.026C-558.58 327.026 -557.011 326.045 -557.011 324.869C-557.011 323.692 -550.541 315.064 -542.502 305.455C-532.503 293.689 -526.228 283.884 -521.915 273.882C-518.582 265.842 -517.209 261.136 -518.778 263.097C-522.111 267.607 -522.111 267.607 -526.621 257.998C-532.699 244.86 -526.229 233.878 -508.19 227.014C-496.818 222.7 -493.877 223.092 -498.583 228.387C-502.112 232.701 -514.464 254.468 -513.288 254.468C-512.896 254.468 -509.955 250.939 -507.014 246.624C-501.72 238.977 -498.191 236.623 -498.191 240.938C-498.191 244.075 -489.956 262.509 -488.976 261.528C-488.388 261.136 -489.368 258.194 -490.936 255.057C-492.701 251.919 -494.466 246.428 -495.25 242.506C-497.015 233.29 -492.897 229.956 -475.643 226.23C-467.997 224.661 -460.35 222.7 -458.193 221.916C-454.86 220.739 -454.86 220.935 -457.017 225.249L-459.566 229.956L-454.86 225.838C-449.371 220.935 -441.332 216.425 -441.332 218.386C-441.332 218.974 -442.9 221.916 -444.861 224.661C-446.822 227.603 -450.547 233.486 -452.9 237.8L-457.409 245.644L-452.311 239.761C-449.566 236.427 -447.214 234.662 -447.214 235.839C-447.018 236.819 -445.841 235.055 -444.469 231.917C-441.331 224.857 -432.705 216.033 -425.254 212.111C-420.353 209.561 -419.764 209.561 -419.764 212.699C-419.764 216.229 -402.902 199.168 -396.824 189.167C-394.864 186.225 -392.903 183.872 -392.119 183.872C-391.531 183.872 -390.354 192.893 -389.57 203.874L-388.394 223.877L-395.648 231.329C-404.471 240.349 -403.098 241.134 -393.295 232.701L-386.433 226.622V241.918C-386.433 250.154 -385.845 256.429 -385.06 255.645C-384.276 255.057 -383.884 246.821 -384.276 237.8C-384.472 227.407 -383.884 221.131 -382.708 221.131C-381.727 221.131 -377.218 227.014 -373.101 234.074C-368.395 241.722 -364.866 245.84 -364.278 244.271C-363.493 242.31 -362.709 242.31 -361.14 244.663C-359.964 246.232 -358.984 247.017 -358.984 246.232C-358.984 245.252 -363.101 239.565 -368.003 233.094C-378.394 219.563 -382.512 207.6 -382.512 190.344V177.793L-370.159 172.106C-363.493 169.165 -354.082 165.635 -349.18 164.262C-344.475 162.889 -338.789 160.732 -336.632 159.164C-328.593 153.673 -325.652 155.438 -325.652 166.223C-325.652 174.263 -326.829 177.793 -332.319 185.245C-341.142 197.991 -353.886 221.131 -351.729 221.131C-350.945 221.131 -346.435 214.268 -341.926 205.835C-337.22 197.599 -332.515 189.363 -331.142 187.598C-327.613 183.284 -294.478 158.379 -292.321 158.379C-291.144 158.379 -290.164 162.105 -290.164 166.615C-289.968 171.714 -289.38 173.087 -288.988 170.341C-288.4 167.792 -286.439 165.243 -284.282 164.85C-281.341 164.066 -280.949 163.282 -282.714 161.125C-286.439 156.614 -283.106 149.555 -274.675 144.848C-270.362 142.495 -266.832 141.122 -266.832 141.711C-266.832 143.083 -253.696 127.984 -249.579 121.904C-244.873 114.845 -248.206 146.221 -253.304 158.379C-261.931 178.185 -261.734 177.989 -268.989 171.126L-275.459 165.243L-270.165 171.714L-264.872 178.381L-269.185 184.461C-278.989 198.776 -307.418 222.308 -345.651 247.997C-355.651 254.665 -367.611 262.901 -372.12 266.038C-376.63 269.372 -383.688 273.686 -387.805 275.451C-391.923 277.412 -398.981 281.334 -403.295 284.276C-407.804 287.217 -416.039 291.335 -421.529 293.493C-430.352 297.022 -498.975 315.456 -511.916 317.809L-516.817 318.593L-511.916 318.986C-507.602 319.182 -508.19 319.966 -516.817 325.849C-522.307 329.379 -527.993 334.085 -529.561 335.85C-531.13 337.811 -527.797 335.85 -521.915 331.34C-511.131 323.3 -485.447 313.299 -475.251 313.299C-470.153 313.299 -470.153 313.495 -473.879 316.24C-476.232 318.201 -474.467 317.809 -468.585 315.26C-463.683 313.299 -454.86 310.161 -448.978 308.592C-443.096 307.023 -436.626 305.062 -434.469 304.278C-432.117 303.494 -434.273 307.023 -440.351 313.495C-456.233 331.144 -460.742 336.831 -458.193 336.831C-457.017 336.831 -454.468 334.478 -452.703 331.34C-447.802 323.3 -439.763 316.24 -426.039 308.592L-413.882 301.729V306.435C-413.882 313.495 -427.411 328.791 -444.273 340.361C-448.586 343.302 -453.292 346.832 -454.86 348.205C-456.233 349.577 -458.389 350.362 -459.566 349.97C-460.938 349.577 -462.703 349.97 -463.879 350.95C-464.86 351.931 -475.055 359.382 -486.427 367.619C-506.426 381.934 -514.465 388.405 -507.994 384.875C-506.426 383.895 -500.74 380.169 -495.446 376.443C-487.603 370.952 -486.035 370.364 -486.819 373.502C-487.407 375.855 -484.27 373.698 -478.192 367.815C-472.898 362.716 -466.82 357.421 -464.664 356.245C-460.938 354.284 -460.742 354.48 -463.487 358.794C-465.056 361.343 -466.82 368.991 -467.409 376.051C-468.585 387.817 -468.389 388.405 -466.036 382.914C-464.664 379.581 -463.879 373.698 -464.467 369.58C-465.252 362.912 -464.664 361.539 -457.213 354.48C-452.507 350.362 -442.9 342.91 -435.842 338.203C-422.117 328.987 -417.607 323.888 -410.353 309.769C-408 305.062 -404.471 299.768 -402.51 297.807C-399.569 294.669 -376.63 283.099 -376.63 284.668C-376.63 285.06 -380.159 290.551 -384.472 296.826C-393.883 311.142 -406.628 323.496 -410.157 322.123C-415.647 319.966 -430.94 348.205 -434.273 366.638C-435.45 372.717 -435.057 373.894 -432.509 372.913C-430.94 372.325 -430.156 370.952 -430.744 369.776C-431.332 368.795 -431.332 364.873 -430.548 361.147C-429.764 356.049 -428.587 354.48 -426.431 355.264C-424.274 356.049 -424.078 355.656 -425.45 352.911C-428.979 346.244 -420.156 334.87 -402.118 322.908C-393.099 316.828 -385.452 310.357 -385.256 308.592C-385.06 306.827 -382.315 302.121 -378.982 298.199C-375.845 294.081 -372.316 288.786 -370.944 286.237C-369.571 283.884 -361.729 278.393 -352.513 273.882C-343.69 269.372 -334.867 264.47 -332.907 262.705C-327.221 257.606 -326.633 261.724 -331.338 276.432C-335.26 288.59 -337.808 292.316 -348.004 302.513C-355.455 309.965 -366.042 317.417 -376.237 322.908C-385.257 327.418 -392.119 331.732 -391.727 332.124C-391.139 332.713 -387.805 331.34 -384.276 329.183C-380.551 327.222 -375.649 324.869 -373.297 324.084C-369.571 323.104 -368.983 323.496 -370.159 326.437C-370.944 328.398 -368.983 327.026 -365.846 323.496C-359.768 316.24 -354.866 317.417 -358.984 325.065C-360.16 327.418 -360.944 329.771 -360.356 330.163C-359.964 330.752 -358.003 327.614 -356.239 323.104C-352.514 313.495 -350.161 312.906 -351.729 321.927C-352.513 326.83 -352.121 328.398 -350.553 327.81C-349.18 327.418 -348.2 323.496 -348.004 318.986C-348.004 312.318 -346.631 309.769 -337.808 301.14C-332.319 295.453 -327.221 291.532 -326.437 292.316C-325.652 292.904 -327.809 302.121 -331.142 312.71C-334.279 323.3 -337.612 335.066 -338.201 338.792C-339.181 345.459 -330.75 320.358 -325.26 300.552L-322.515 290.747L-318.202 299.964C-316.045 305.259 -313.692 309.377 -312.908 309.377C-312.32 309.377 -313.104 307.023 -314.673 303.886C-321.339 291.139 -322.319 282.119 -318.594 267.803C-315.457 256.037 -314.084 253.488 -307.026 248.389C-302.712 245.252 -298.987 243.291 -298.595 244.271C-298.399 245.252 -299.772 250.743 -302.124 256.233C-304.281 261.92 -305.457 267.607 -304.673 268.784C-303.889 270.157 -302.124 276.04 -300.948 281.923L-298.595 292.708L-298.791 277.02C-298.791 265.646 -297.811 258.587 -294.87 251.919L-291.144 242.31L-286.635 254.861C-279.577 274.079 -279.577 275.843 -286.831 287.609C-290.36 293.493 -293.889 298.003 -294.87 297.415C-295.654 297.022 -297.811 299.376 -299.772 302.905C-311.144 323.692 -313.888 329.183 -313.888 331.732C-313.888 335.654 -352.71 374.678 -360.748 378.796C-364.081 380.561 -366.826 381.542 -366.826 380.953C-366.826 380.365 -370.159 381.542 -374.081 383.699C-386.237 389.778 -415.451 398.21 -421.725 397.23C-424.862 396.838 -427.803 397.034 -427.999 397.622C-428.391 398.406 -435.253 400.956 -443.292 403.309C-456.429 407.231 -478.584 419.193 -478.584 422.331C-478.584 423.115 -477.212 422.527 -475.643 421.154C-473.879 419.781 -472.114 418.997 -471.526 419.585C-469.761 421.546 -486.427 435.862 -496.819 441.156C-502.504 444.098 -506.229 446.451 -505.445 446.647C-502.7 446.647 -483.486 436.45 -478.977 432.332L-474.663 428.41L-474.467 434.097C-474.271 438.607 -473.879 437.823 -471.722 429.979C-468.585 418.605 -460.938 411.153 -447.802 406.839C-440.94 404.486 -439.371 404.486 -440.155 406.447C-440.743 408.211 -438.979 407.819 -434.862 405.466C-427.019 400.76 -410.549 397.818 -412.902 401.544C-413.686 402.917 -412.51 402.721 -409.765 400.76C-407.02 399.191 -400.942 396.445 -396.236 394.681L-387.413 391.543L-397.217 401.74L-407.02 412.133L-395.452 401.936C-388.394 395.857 -381.923 391.739 -378.982 391.739H-374.277L-378.394 398.406C-380.747 401.936 -382.512 406.643 -382.512 408.604C-382.512 410.761 -379.963 407.035 -377.022 400.564C-372.12 390.562 -370.159 388.405 -363.689 386.052C-359.572 384.679 -353.494 381.542 -350.553 379.581C-347.416 377.424 -344.671 376.051 -344.082 376.443C-343.102 377.62 -347.612 390.955 -352.121 399.779C-354.082 403.505 -359.572 410.369 -364.669 415.075C-371.14 421.154 -371.924 422.527 -367.414 419.389C-361.532 415.271 -355.847 409.388 -348.592 399.583L-345.063 394.681L-346.239 400.564C-346.828 403.701 -349.572 410.761 -352.317 416.252C-354.866 421.546 -355.65 424.292 -354.082 422.135C-345.651 411.349 -341.926 403.309 -340.749 393.504C-338.593 376.051 -335.652 368.403 -327.809 360.755C-319.574 352.519 -306.83 345.263 -304.477 347.42C-303.693 348.205 -306.438 355.264 -310.555 362.912C-314.673 370.756 -316.829 375.659 -315.261 374.09C-312.908 371.541 -306.242 359.382 -300.36 346.636C-299.575 345.067 -290.753 339.576 -280.949 334.478C-267.029 327.418 -262.911 326.045 -262.911 328.398C-262.911 334.478 -276.635 359.971 -284.87 369.383C-296.83 382.914 -308.987 398.014 -310.751 401.544C-311.536 403.113 -308.987 400.956 -305.261 396.641L-298.203 388.797L-298.007 396.641L-297.811 404.486L-296.242 397.622C-293.693 385.464 -290.752 380.561 -283.498 376.051C-279.381 373.502 -273.891 367.226 -270.362 361.147C-267.224 355.264 -263.891 350.558 -262.911 350.558C-262.127 350.558 -260.95 356.049 -260.558 362.716C-259.97 369.58 -257.029 380.757 -254.284 387.817C-250.363 397.23 -249.382 402.524 -250.167 407.623C-251.147 413.114 -250.363 416.448 -247.226 421.35C-244.873 425.076 -243.5 426.253 -244.481 424.096C-245.265 421.938 -246.637 414.487 -247.422 407.427C-248.206 400.367 -250.951 387.425 -253.5 378.6C-257.813 362.716 -257.813 362.128 -254.872 344.086C-251.539 324.476 -247.422 313.887 -243.696 314.671C-242.324 315.064 -241.344 313.495 -241.344 311.338C-241.344 305.651 -236.05 306.631 -232.717 312.907C-231.148 316.044 -228.403 319.574 -226.835 320.947C-222.913 324.28 -222.717 329.771 -226.443 333.497C-228.991 336.046 -229.972 342.322 -232.717 373.502C-233.893 386.444 -233.501 388.405 -227.619 400.171L-221.345 412.918L-225.658 421.154C-228.403 426.449 -231.932 430.175 -235.658 431.547C-238.795 432.724 -241.344 434.881 -241.344 436.058C-241.344 442.725 -273.891 466.257 -299.967 478.219C-309.183 482.534 -322.907 490.378 -330.554 495.476C-338.004 500.771 -349.18 506.85 -355.062 509.203C-363.297 512.341 -364.081 513.125 -358.984 512.145L-352.121 510.968L-357.611 515.282C-360.552 517.636 -362.513 520.185 -361.924 521.165C-360.356 523.715 -364.669 533.324 -370.355 539.795L-375.649 545.678L-369.375 539.991C-365.846 536.854 -361.925 531.167 -360.748 527.245C-357.611 517.636 -354.474 514.498 -340.161 506.458C-326.044 498.614 -325.652 498.418 -325.652 502.928C-325.456 505.085 -324.476 504.301 -322.907 500.575C-319.182 492.143 -314.673 488.809 -298.203 481.945C-290.164 478.612 -281.537 474.69 -279.185 473.121C-272.714 468.807 -272.322 469.395 -276.44 477.435C-280.949 486.259 -283.694 489.593 -304.085 510.576C-312.516 519.401 -321.731 531.363 -324.672 537.05C-327.613 542.933 -331.338 549.208 -333.103 550.973C-335.064 553.522 -335.456 555.091 -333.887 556.856C-332.711 558.228 -331.534 561.954 -330.946 565.288C-330.358 569.21 -330.162 568.23 -330.162 562.347C-330.358 549.012 -318.398 527.637 -303.301 514.106C-296.635 508.223 -290.36 503.909 -289.184 504.301C-288.008 504.693 -285.655 502.34 -283.89 498.81C-276.636 483.318 -266.244 470.179 -254.872 461.551C-248.402 456.648 -242.324 452.53 -241.54 452.53C-240.756 452.53 -242.324 459.198 -245.069 467.434L-249.97 482.338L-246.441 496.457C-244.481 504.105 -241.54 512.733 -240.167 515.675C-235.462 524.891 -236.834 530.186 -245.657 539.207C-250.363 543.913 -255.852 548.816 -258.009 550.188C-261.734 552.542 -261.734 552.542 -257.813 550.777C-255.46 549.6 -253.304 549.208 -252.716 549.6C-252.323 550.188 -248.794 547.443 -245.265 543.717C-237.814 536.069 -233.501 534.892 -233.501 540.579C-233.501 542.737 -232.521 545.09 -231.344 545.874C-230.168 546.462 -227.423 551.169 -225.266 555.875C-219.776 568.23 -221.737 578.035 -231.148 586.075L-238.403 592.35L-230.952 587.84L-223.305 583.329L-226.443 589.212L-229.384 595.292L-224.678 592.938C-220.953 591.369 -220.169 589.801 -221.149 586.859C-221.933 584.702 -222.129 580.78 -221.737 578.035C-221.345 575.289 -220.953 567.837 -220.757 561.366C-220.757 551.757 -221.541 548.816 -225.07 545.09C-230.756 539.599 -230.952 528.029 -225.854 521.165C-222.521 517.047 -221.737 516.851 -218.6 519.204C-215.463 521.95 -215.463 521.754 -217.227 518.224C-219.58 513.91 -214.678 497.633 -210.757 496.261C-206.836 494.888 -169.581 508.811 -170.954 514.89C-171.542 517.832 -171.542 519.008 -170.954 517.636C-169.189 513.714 -166.444 514.89 -162.327 521.558C-157.229 529.99 -157.229 539.599 -162.523 544.894C-168.209 550.581 -169.777 568.622 -165.464 578.035C-163.699 581.761 -162.719 583.133 -163.503 580.976C-166.64 570.975 -166.641 562.15 -163.896 558.817C-162.131 557.052 -160.954 554.11 -160.954 552.542C-160.954 550.973 -158.994 546.266 -156.445 542.344L-152.132 534.892L-143.309 542.737C-131.348 553.326 -128.211 552.738 -139.583 542.148C-150.367 532.343 -153.112 523.715 -147.23 517.832C-145.073 515.675 -143.897 512.929 -144.289 511.557C-144.681 510.184 -143.505 502.928 -141.544 495.476L-141.544 495.476C-138.015 481.945 -138.015 481.945 -142.524 468.61C-144.877 461.355 -147.426 454.295 -148.014 452.922C-149.19 449.785 -142.132 453.903 -130.564 463.12C-121.545 469.983 -115.467 479.2 -102.135 504.497C-96.4487 515.282 -91.9389 523.323 -91.7429 522.538C-91.7429 521.754 -93.5076 517.44 -95.8604 513.125C-98.0172 508.615 -99.3896 504.693 -98.8015 504.105C-97.6251 502.928 -81.1554 515.479 -76.4498 521.165C-75.0773 522.734 -71.352 529.598 -68.2149 536.265C-65.0778 542.933 -61.5485 548.816 -60.3721 549.6C-59.3918 550.188 -58.2156 553.718 -58.2156 557.052C-58.0196 561.954 -57.6273 562.347 -57.0391 558.817C-56.0588 554.306 -56.059 554.306 -51.9416 557.836C-49.1967 560.189 -49.5887 559.013 -53.1179 554.699C-56.2549 550.973 -61.1565 542.54 -64.0975 536.069C-68.2148 526.852 -72.9206 520.969 -82.7239 512.145C-94.0958 502.144 -115.075 475.082 -113.114 473.317C-111.546 471.944 -84.8807 483.71 -75.2735 489.985C-65.6663 496.457 -65.2739 497.045 -64.0975 507.438L-62.9212 518.224L-62.7252 508.811C-62.5291 503.712 -61.9408 499.594 -61.3526 499.594C-60.7644 499.594 -55.6667 501.948 -49.9808 504.693C-38.2168 510.576 -29.0015 518.616 -29.0015 522.93C-29.0015 525.284 -28.4136 525.284 -26.6489 523.519C-24.8843 521.754 -25.4723 519.989 -29.0015 516.263L-33.7073 511.36L-26.845 512.341C-22.5315 513.125 -24.1 512.145 -31.7466 509.399C-38.0208 507.046 -48.8042 501.359 -55.8626 496.653C-62.7249 491.75 -76.8419 483.906 -87.0374 479.2C-97.429 474.297 -111.742 466.257 -118.996 461.551C-132.329 452.53 -166.248 419.389 -166.248 415.075C-166.248 413.702 -163.895 408.015 -160.954 402.132C-154.288 388.209 -153.308 376.247 -157.425 357.814C-159.19 349.773 -160.17 341.145 -159.386 338.988C-158.406 335.85 -158.798 335.262 -160.954 336.046C-165.464 337.615 -167.033 327.614 -163.307 321.927C-161.739 319.378 -159.582 317.221 -158.602 317.221C-157.818 317.221 -156.053 315.064 -154.876 312.318C-152.131 306.435 -148.994 306.043 -147.034 311.142C-146.25 313.299 -144.681 314.867 -143.701 314.671C-140.171 314.083 -132.721 340.949 -131.937 356.441C-131.544 367.03 -132.329 374.286 -134.878 381.934C-139.387 395.465 -141.152 419.193 -137.426 417.82C-135.662 417.036 -135.27 414.094 -136.054 406.643C-137.034 398.799 -136.446 394.092 -133.309 386.836C-131.152 381.346 -128.8 372.129 -128.015 366.246C-126.447 351.538 -124.29 348.597 -121.153 356.637C-119.584 360.167 -113.114 368.403 -106.448 375.07C-95.0762 386.836 -94.2917 388.013 -91.9389 401.544C-90.3704 409.388 -88.6058 414.683 -87.8216 413.31C-87.0374 412.133 -87.6255 407.819 -88.998 403.897C-90.3704 399.975 -91.5468 394.484 -91.7429 391.935C-91.7429 387.044 -91.5477 387.228 -84.5358 393.851L-84.4885 393.896L-77.43 400.564L-84.0964 392.131C-87.8217 387.425 -95.4683 378.208 -101.154 371.541C-111.546 359.775 -128.211 328.595 -125.074 327.418C-124.094 327.026 -114.879 330.752 -104.683 335.85C-87.2335 344.087 -85.861 345.263 -85.861 350.362C-85.861 353.499 -85.0767 356.441 -84.0964 356.833C-83.116 357.029 -79.979 362.324 -77.038 368.207C-73.9009 374.09 -71.1561 378.012 -70.764 376.835C-70.3718 375.463 -72.3324 371.148 -75.0773 367.226C-79.979 359.775 -81.1554 348.597 -77.038 348.597C-73.1167 348.597 -58.4117 362.52 -53.7061 370.756C-48.2162 380.561 -44.8831 395.073 -44.2949 411.937C-44.0988 421.938 -43.9026 422.527 -43.3144 415.663L-42.5302 407.231L-37.6287 416.84C-34.8838 422.331 -31.1584 427.822 -29.3938 429.39C-26.6489 431.547 -26.8448 430.959 -29.9819 426.057C-35.6678 417.232 -40.3734 406.839 -41.7458 400.367L-42.9224 394.681L-39.3933 399.583C-37.4326 402.328 -32.9227 407.623 -29.1975 411.349L-22.5315 418.213L-27.8252 411.349C-33.9033 403.505 -41.7461 387.425 -43.9028 379.385L-45.2751 373.698L-37.4324 378.6C-32.9229 381.346 -26.2567 384.875 -22.5315 386.64C-18.022 388.405 -14.1006 392.131 -11.5518 397.034C-9.39502 401.152 -7.63037 403.701 -7.43433 402.917C-7.43433 402.132 -8.80676 398.799 -10.3752 395.661C-13.9044 388.797 -13.5123 388.601 -3.90503 393.504C4.32971 397.818 14.329 408.015 23.9363 421.546C27.4655 426.841 30.7986 430.959 31.1907 430.959C33.5435 430.959 21.7794 415.075 11.3879 403.897C-0.376099 391.739 2.76099 390.17 19.8188 399.779C25.897 403.309 29.6222 404.682 28.0537 402.721C24.5245 398.406 27.6617 398.603 41.7786 402.917C47.6605 404.682 53.5424 406.054 54.7188 405.662C56.0912 405.466 61.5812 407.231 67.071 409.584C74.7177 412.918 78.0507 415.663 80.9917 421.546C83.1484 425.86 85.5011 428.802 86.2854 428.214C86.8737 427.429 86.2855 425.86 85.1091 424.684C80.7957 420.37 82.7562 418.605 87.854 422.135C97.4613 428.41 90.795 421.742 80.4036 414.683C74.5216 410.565 63.7377 405.858 55.5029 403.701C47.4642 401.348 40.2098 398.603 39.4255 397.426C38.6412 396.053 37.8569 395.857 37.4648 397.23C36.2885 400.367 19.819 396.641 -5.27759 387.229C-27.6292 378.992 -28.0212 378.796 -50.3729 358.01C-62.725 346.44 -73.1166 335.262 -73.3127 333.497C-73.5087 331.536 -75.0773 326.83 -76.6458 322.908C-78.4104 318.986 -79.3909 315.456 -78.9987 314.868C-78.6066 314.475 -79.783 313.103 -81.5475 311.926C-84.2925 310.357 -83.9005 312.122 -79.587 321.339C-76.646 327.614 -74.097 333.301 -74.097 333.889C-74.097 336.046 -78.0183 334.478 -92.9194 326.045C-111.742 315.26 -124.682 304.866 -127.231 298.199C-129.388 292.512 -127.819 289.374 -125.074 293.689C-123.506 296.042 -123.113 296.042 -123.113 292.904C-123.113 290.943 -121.153 286.237 -118.8 282.315L-114.683 275.451L-106.84 284.08C-101.938 289.57 -100.566 290.551 -102.919 286.825C-105.076 283.491 -107.428 279.373 -108.016 277.412C-109.193 274.275 -100.958 247.801 -97.6251 244.075C-96.8408 243.291 -94.488 247.997 -92.3312 254.861C-89.1942 264.274 -88.4098 271.333 -88.8019 283.884L-89.3902 300.552L-87.8216 287.806C-86.8412 280.746 -85.4688 271.921 -84.8806 267.999C-83.9002 262.901 -84.6846 258.587 -87.6255 252.507C-89.7823 247.801 -91.3508 243.487 -90.7626 243.095C-88.998 241.33 -79.783 248.782 -75.2735 256.037C-69.7836 264.077 -65.47 283.688 -68.4109 286.629C-69.3913 287.806 -69.9796 290.747 -69.9796 293.493C-69.7835 296.826 -69.3914 297.415 -68.8032 295.061C-67.2346 288.982 -64.6857 291.531 -63.3133 300.944C-62.1369 308.984 -54.8824 327.026 -54.4903 322.515C-54.4903 321.535 -55.4708 319.182 -56.4511 317.221C-59.196 311.926 -64.0975 287.806 -62.3329 287.806C-61.5487 287.806 -58.6075 290.747 -55.8626 294.081C-53.3137 297.611 -48.6083 303.101 -45.8633 306.435C-37.0403 316.436 -30.178 329.379 -27.8252 340.753C-25.8645 350.754 -25.6686 351.146 -24.6882 345.067C-24.1 340.361 -25.4724 335.458 -30.374 325.849C-36.0599 315.064 -36.452 313.299 -33.3149 315.064C-31.1582 316.24 -27.0411 320.162 -24.1001 323.496C-20.963 327.418 -19.7865 328.202 -21.1589 325.457C-24.1 319.574 -21.9434 319.966 -8.80688 327.81C-2.72876 331.536 2.36914 333.889 2.36914 333.301C2.36914 331.732 -4.1012 327.418 -22.5315 316.24C-36.4523 307.808 -51.5493 292.708 -55.2746 283.295C-56.647 279.962 -58.4116 273.294 -59.1959 268.784L-60.3721 260.548L-40.3733 270.745C-21.1588 280.55 -20.1786 281.53 -12.728 293.689C-3.12073 309.965 3.34924 316.632 17.4661 325.065C33.1514 334.281 35.5043 336.439 36.8767 343.89C37.8571 349.381 36.877 351.734 30.7988 359.775L23.3479 369.187L31.3867 360.363C35.7002 355.46 40.0138 352.323 40.7981 353.107C41.7784 353.892 42.3665 359.775 42.5625 366.05C42.5625 372.521 43.1508 376.639 43.9351 375.463C46.6799 371.148 45.5037 358.598 41.3862 347.224C36.2885 333.497 33.7397 330.359 20.9954 322.123C15.7015 318.593 9.03516 313.495 6.48633 310.749C3.9375 307.808 0.99646 306.043 -0.179932 306.827C-1.35632 307.416 -1.55261 307.023 -0.768311 305.847C0.0159912 304.474 -1.74854 300.16 -4.49341 296.238C-7.23828 292.12 -8.61072 288.59 -7.82642 288.198C-6.84607 288.002 -2.1405 289.374 2.95728 291.531C10.2118 294.669 13.7408 298.199 21.5835 309.769C32.7593 326.241 39.8177 333.105 56.4834 344.283C70.208 353.499 74.9136 359.578 74.9136 368.599C74.9136 372.129 75.6979 376.247 76.4822 377.62C77.4625 378.992 77.6584 374.678 77.2664 368.207C76.8743 361.736 77.0702 356.441 77.8545 356.441C78.6388 356.441 84.1288 361.343 90.0107 367.226C95.8927 373.109 100.402 376.639 99.6179 375.07C98.2455 371.345 99.0299 371.345 106.873 375.07C112.558 378.012 112.755 378.012 109.225 375.07C92.7557 362.324 74.1295 349.773 71.1885 349.577C65.1104 349.185 41.5823 328.987 32.3672 316.632C22.7599 303.494 20.9952 297.022 28.4458 302.317C30.7986 304.082 37.661 308.004 43.543 311.142C56.8755 318.201 63.7379 325.261 69.0317 337.223C71.1885 342.518 73.3452 346.636 73.5413 346.636C73.9333 346.636 73.9333 344.479 73.9333 341.929C73.5413 335.654 64.5222 322.712 53.7385 313.103C48.8369 308.984 45.6996 305.455 46.6799 305.455C47.6603 305.455 56.0909 307.612 65.5022 309.965C74.9135 312.514 82.9524 313.887 83.1484 313.103C83.7367 311.534 106.284 316.828 116.872 320.947C120.401 322.319 123.146 322.515 123.734 321.339C124.519 320.358 129.42 320.358 136.479 321.339C142.753 322.515 149.027 322.908 150.203 322.515C151.38 322.123 144.517 320.554 134.714 319.182C125.107 317.809 109.617 314.671 100.402 312.122C91.1873 309.769 76.2861 306.239 67.2671 304.474C46.484 300.356 6.29028 282.903 6.29028 278.197C6.29028 277.412 5.11389 276.628 3.74146 276.628C0.800415 276.628 -65.2739 232.897 -79.9789 221.327C-84.8806 217.602 -96.0565 207.797 -104.879 199.953C-122.329 184.461 -124.486 179.362 -117.82 171.322C-115.467 168.38 -116.055 168.772 -119.78 172.106C-126.055 177.597 -126.447 177.205 -132.917 162.693C-137.034 153.869 -143.309 119.159 -141.348 117.198C-140.76 116.61 -139.779 117.198 -139.387 118.571C-137.623 123.277 -122.722 142.691 -120.957 142.691C-117.232 142.691 -101.546 154.653 -101.546 157.399C-101.546 158.771 -103.311 160.536 -105.272 161.321C-107.428 161.909 -110.173 163.87 -111.742 165.635C-113.898 168.38 -113.506 168.38 -108.997 165.439C-103.507 161.909 -103.507 161.909 -101.546 167.204C-100.566 169.949 -99.3895 174.263 -99.1934 176.616C-98.9974 178.97 -98.4092 175.832 -97.821 169.557L-96.6446 158.183L-84.8806 166.027C-65.8621 178.774 -63.1172 181.519 -65.8621 186.029C-68.8031 190.736 -68.8032 192.305 -66.0583 190.54C-64.4897 189.559 -64.2936 192.501 -65.0778 200.345C-66.0582 207.797 -65.6662 211.326 -64.2938 211.326C-63.1174 211.326 -62.3331 209.757 -62.5291 207.796C-62.7252 206.032 -62.7252 199.756 -62.5291 193.873C-62.3331 180.735 -60.7645 181.715 -47.628 204.267C-42.1381 213.483 -37.2365 221.131 -36.4521 221.131C-34.0994 221.131 -48.0201 197.011 -57.0391 185.245C-60.1762 181.323 -62.333 176.813 -61.7448 175.244C-61.1566 173.871 -61.5488 168.772 -62.5291 164.262C-63.5095 159.752 -64.0977 155.438 -63.5095 155.045C-62.137 153.673 -47.8241 160.34 -42.9224 164.85C-40.3735 167.204 -38.8048 167.988 -39.7852 166.419C-41.9419 162.497 -33.119 164.85 -19.1982 171.714L-8.41479 177.009L-7.82642 191.716C-7.23816 208.581 -9.98328 217.798 -20.3748 232.897C-24.1 238.388 -26.2567 242.702 -25.0803 242.702C-24.1 242.702 -23.1196 246.036 -22.9236 249.958L-22.7273 257.41L-21.1589 249.174C-20.1786 244.663 -18.0219 238.584 -16.4534 235.447C-13.1202 229.564 -6.45398 221.131 -4.8855 221.131C-4.49341 221.131 -4.10132 227.21 -4.10132 234.858C-4.10132 242.31 -5.08167 248.585 -6.06201 248.585C-6.84631 248.585 -6.25793 249.958 -4.68945 251.723C-2.9248 253.292 -1.55249 255.449 -1.55249 256.037C-1.55249 256.822 0.212402 258.587 2.56519 259.959C6.48657 262.509 6.48657 262.509 2.36914 256.822C-0.963989 252.311 -1.74866 248.978 -1.1604 239.565L-0.572021 227.995L9.81958 237.604C22.76 249.762 22.9558 247.409 10.0154 233.29C0.0159912 222.504 0.0162354 222.112 1.19263 212.307C1.78088 207.012 2.36914 198.384 2.36914 193.285V184.264L15.1133 197.403C22.1716 204.659 27.8577 211.915 27.8577 213.483C27.8577 215.837 28.2499 215.641 29.8184 213.287C31.3868 210.738 32.5634 210.738 38.4453 214.072C48.0526 219.17 51.3856 223.288 54.3267 234.27C55.6991 239.369 57.0718 241.722 57.0718 239.173C57.2678 236.819 58.0519 234.858 59.0322 234.858C61.5811 234.858 78.835 260.94 80.7957 267.803C81.972 271.725 82.364 272.118 82.5601 269.176C82.7561 267.019 76.09 254.861 68.2473 242.114C60.2086 229.564 54.1306 219.17 54.5227 219.17C57.2676 219.17 64.9143 224.269 71.7766 230.74C76.4822 235.251 78.6388 236.231 77.2664 233.682C76.09 231.525 73.7372 228.583 72.1687 227.014C67.8552 223.681 68.2473 220.543 72.5608 222.7C74.3254 223.681 81.5801 225.642 88.6384 227.014C103.343 229.956 108.245 233.29 108.245 240.545C108.245 244.663 108.637 245.056 110.206 242.702C111.97 240.153 113.343 240.938 118.244 246.624L124.322 253.488L117.852 240.741C114.127 233.682 110.99 227.407 110.598 226.426C109.225 223.681 116.088 225.053 125.107 229.368C130.401 231.721 136.087 236.427 138.832 240.545C143.341 247.605 143.341 247.801 140.204 257.998C138.047 264.47 135.89 268.196 133.93 268.196C131.773 268.196 131.577 268.784 133.146 269.764C134.322 270.549 137.263 276.04 139.42 281.923C141.772 288.394 148.635 298.787 156.281 307.808C163.34 316.24 167.849 323.104 166.673 323.104C165.3 323.3 167.653 324.476 171.967 326.045C181.574 329.575 184.711 333.497 184.711 342.518C184.711 347.812 185.299 348.793 186.672 346.636C188.436 344.086 188.828 344.086 190.789 346.636C192.554 348.989 192.75 348.793 191.965 345.067C190.593 338.596 193.338 339.772 196.867 347.028C198.632 350.558 203.533 357.617 208.043 362.716C212.552 367.815 217.846 376.639 219.807 382.326C224.316 395.073 229.61 407.035 229.806 404.682C229.806 403.701 232.551 406.447 235.884 410.565L236.695 411.578C242.988 419.448 243.531 420.127 243.531 418.997C243.531 418.605 239.61 412.918 234.708 406.447C226.865 396.053 218.239 377.031 220.395 375.07C222.356 373.109 250.393 386.444 257.648 392.719C262.157 396.445 270.392 400.76 276.078 402.525C291.763 407.035 293.332 405.858 278.235 400.76C270.784 398.21 262.157 393.7 258.628 390.366C255.099 387.033 245.884 381.15 238.041 377.228C220.199 368.207 211.376 360.167 201.377 344.086C196.083 335.066 191.181 329.771 185.691 326.83C173.927 320.162 154.713 299.768 148.438 287.021C143.733 277.412 143.145 274.471 144.125 264.47C146.086 247.017 146.282 246.624 154.909 250.743C158.83 252.704 167.849 254.861 174.711 255.449C190.985 256.822 198.239 260.155 209.807 270.941C217.65 278.197 219.415 281.138 218.826 285.452C218.434 288.394 218.63 289.178 219.219 287.217C220.787 282.511 222.356 282.903 229.022 290.159C238.826 300.748 246.276 311.73 248.825 319.182L251.177 326.045L250.197 319.378C249.413 315.848 245.492 308.396 241.374 302.709C233.336 292.12 233.924 289.963 243.923 293.493C247.256 294.669 250.393 295.257 250.982 294.865C251.374 294.277 248.041 292.904 243.335 291.531C235.884 289.178 210.788 268.98 212.749 267.019C213.141 266.627 216.082 267.019 219.219 268.196C222.356 269.176 233.336 271.333 243.531 272.902C276.47 277.804 308.233 293.296 308.233 304.67C308.233 307.612 311.37 312.906 316.076 318.005C321.173 323.496 323.918 328.398 324.114 332.124C324.31 335.458 324.703 336.439 325.291 334.281C325.683 332.517 327.252 330.948 328.428 330.948C329.604 330.948 327.055 327.222 322.546 322.515C313.723 313.299 310.194 307.612 310.194 301.925C310.194 297.218 303.724 291.532 290.783 284.668C278.823 278.589 279.999 277.02 295.489 278.981C303.135 279.765 309.802 282.707 321.173 289.963C329.8 295.257 338.427 301.729 340.584 304.278C342.741 307.023 347.25 309.573 350.387 310.357C356.073 311.338 356.073 311.338 351.368 309.377C348.819 308.2 343.917 304.474 340.584 300.944C337.055 297.415 330.193 292.12 325.095 289.178C319.801 286.237 315.88 283.295 316.272 282.903C318.232 281.138 350.583 293.885 358.426 299.376C369.406 307.023 369.602 305.847 358.818 297.218C354.309 293.689 344.701 288.786 337.643 286.629C325.683 282.511 325.291 282.315 330.781 280.942C334.114 280.354 342.937 277.608 350.387 274.863C358.034 272.314 369.406 269.372 375.876 268.196L387.64 266.431L375.288 267.215L362.74 267.803L363.916 262.705C364.896 257.606 364.896 257.802 361.955 263.489C359.406 268.392 356.465 270.353 345.682 273.49C338.623 275.843 330.388 278.197 327.644 278.785C322.742 279.765 253.53 268.392 240.59 264.274C237.453 263.293 231.375 261.92 227.454 261.332C223.336 260.744 210.004 255.057 198.044 248.978C185.888 242.702 170.398 235.447 163.732 232.505C156.869 229.564 151.38 226.426 151.38 225.249C151.38 220.935 185.299 221.72 191.965 226.034C195.887 228.779 196.279 228.583 195.103 225.838C194.122 223.092 195.299 222.7 206.474 224.073C213.337 224.661 220.591 225.838 222.552 226.23C224.316 226.818 225.885 226.426 225.885 225.446C225.885 222.896 215.297 221.524 178.829 219.17C137.655 216.425 124.911 213.483 93.54 198.58C83.9327 193.873 69.8158 187.402 62.1692 184.068C54.7186 180.539 47.2683 176.617 45.5037 175.244C43.9352 173.871 34.3278 169.753 24.5244 166.223C14.525 162.693 5.50598 158.771 4.52563 157.595C3.74133 156.418 2.17322 151.908 1.38892 147.594L0.0161133 139.75L4.72192 143.672C9.23145 147.594 9.23132 147.594 5.89819 143.672C4.13354 141.514 0.408325 134.063 -2.53271 127.003C-5.47375 119.943 -8.21863 113.08 -8.80688 111.511C-10.1793 108.57 -5.86572 109.354 7.27075 114.845C20.0151 119.943 25.701 124.846 30.7988 134.847C33.5437 140.142 36.4845 144.848 37.6609 145.633C38.8373 146.417 36.4846 141.122 32.5632 134.063C28.6418 127.003 25.897 121.12 26.2891 121.12C26.4851 121.12 30.4065 122.493 34.72 124.061C39.0334 125.63 45.3075 126.807 48.4446 126.807C52.9541 126.807 51.7776 125.826 42.5625 122.885C27.0732 117.982 24.5244 115.629 20.0149 103.275C17.8582 97.3918 16.0938 92.4893 16.0938 92.2932C16.0938 91.3127 37.6609 99.7451 46.876 104.255C52.5619 107.001 58.0519 109.354 59.2283 109.354C61.5811 109.354 69.2277 124.062 67.6592 125.826C66.8749 126.415 63.7379 127.003 60.4048 127.199L54.3267 127.395L60.7969 129.16C65.5024 130.533 68.0513 132.886 70.012 137.592C71.5804 141.122 74.1295 145.044 75.698 146.417C77.8547 148.182 78.4427 150.731 77.6584 154.261C76.4821 159.164 76.4821 159.163 79.4231 155.634C81.9719 152.104 81.776 150.927 76.6782 142.887C70.6001 132.886 71.7767 130.925 81.188 135.631C89.0306 139.553 90.4028 138.377 83.3445 133.867C75.1097 128.572 69.4238 122.493 67.071 116.414C65.3064 111.707 65.5024 111.119 68.2473 112.099C69.8158 112.688 78.0507 115.629 86.2854 118.375C107.461 125.826 124.322 137.396 121.185 142.299C120.597 143.476 121.381 144.652 122.95 145.436C124.518 146.025 126.087 148.966 126.087 151.908C126.479 157.202 126.479 157.203 127.263 152.692L128.244 147.79L132.165 152.692C135.498 156.81 135.694 156.81 133.93 153.084C132.753 150.731 130.793 148.182 129.812 147.594C125.891 145.044 128.048 142.691 133.342 143.868C144.91 146.417 168.438 154.653 174.32 158.379C177.849 160.536 183.339 165.831 186.672 170.341C193.338 179.558 193.73 179.558 189.809 169.949C185.103 158.967 176.869 152.888 156.478 145.633C146.086 141.907 134.322 137.004 130.204 135.043C121.773 130.533 89.8148 96.6074 95.6968 98.1762C97.6575 98.7645 104.324 100.333 110.206 101.51C116.088 102.883 123.146 105.236 125.891 107.001C128.636 108.766 139.224 112.884 149.419 116.217C164.712 121.316 168.241 123.277 168.634 126.611C169.418 131.513 170.986 132.102 174.516 128.572C177.653 125.434 190.005 135.435 195.887 145.829C200.2 153.28 202.357 152.104 198.436 144.456C196.867 141.711 197.063 140.73 198.828 140.73C200.2 140.73 199.612 139.553 197.259 138.181C195.147 137.028 187.391 131.924 180.072 127.108L179.613 126.807C170.986 120.924 159.811 115.629 149.027 112.492C124.911 105.04 119.225 96.9996 141.184 100.922C148.439 102.294 152.752 102.294 153.536 101.118C154.321 99.9411 158.83 99.3528 163.928 99.7451C168.83 100.137 172.947 99.941 172.947 99.1566C172.947 97.5878 200.004 98.9607 208.239 100.726C212.356 101.706 220.983 105.628 255.099 121.904C257.648 123.081 260.981 126.611 262.353 129.945C263.726 133.082 264.902 134.847 265.098 133.867C265.098 132.69 266.079 133.278 267.059 134.847C268.628 137.2 269.02 137.396 269.02 135.043C269.02 132.886 270.196 133.278 273.529 136.22C279.999 142.495 310.194 160.732 312.546 159.948C313.527 159.556 308.037 155.242 299.998 150.143C279.411 137.004 265.687 123.669 263.922 115.237L262.746 108.373L267.255 112.295C271.177 115.629 270.98 115.237 266.471 109.746C262.942 105.236 261.177 100.922 261.177 96.0191C261.177 91.9009 260.393 85.8219 259.412 82.2921C258.432 78.9584 258.04 76.0168 258.432 76.0168C261.765 76.0168 271.372 82.6843 276.666 88.7634C279.999 92.6854 282.744 95.0386 282.744 94.0581C282.744 92.0971 270.392 80.3311 259.608 72.0948C256.413 69.4626 253.577 66.8304 253.349 65.7537Z" fill="#2A3338"/>
<path d="M495.869 24.2463C499.006 25.4229 499.006 25.2267 495.477 22.4813C490.771 18.7554 490.379 18.5593 486.654 21.1086C484.301 22.6774 484.497 23.0696 488.026 23.0696C490.379 23.0696 493.908 23.658 495.869 24.2463Z" fill="#2A3338"/>
<path d="M-969.143 63.6625C-966.79 64.0547 -963.261 64.0547 -961.3 63.6625C-959.536 63.0742 -961.496 62.6819 -965.81 62.8781C-970.123 62.8781 -971.692 63.2703 -969.143 63.6625Z" fill="#2A3338"/>
<path d="M-728.961 109.354C-728.961 114.256 -728.569 116.218 -728.177 113.668C-727.785 111.315 -727.785 107.393 -728.177 104.844C-728.569 102.49 -728.961 104.451 -728.961 109.354Z" fill="#2A3338"/>
<path d="M-822.681 126.219C-821.113 122.101 -818.76 117.394 -817.584 116.021C-816.407 114.453 -815.819 113.276 -816.603 113.276C-818.564 113.276 -823.466 121.904 -824.446 127.984C-825.426 132.69 -825.034 132.298 -822.681 126.219Z" fill="#2A3338"/>
<path d="M-620.733 158.575C-616.419 155.242 -607.988 149.947 -602.106 146.809C-596.224 143.476 -592.107 140.73 -593.283 140.926C-597.401 140.926 -613.282 150.535 -620.733 157.399L-628.575 164.458L-620.733 158.575Z" fill="#2A3338"/>
<path d="M-885.815 150.535C-883.658 150.535 -872.678 144.848 -872.678 143.672C-872.678 142.299 -872.874 142.299 -880.521 146.613C-884.246 148.77 -886.599 150.339 -885.815 150.535Z" fill="#2A3338"/>
<path d="M227.846 154.457C231.179 156.81 233.728 158.183 233.728 157.595C233.728 157.203 231.179 154.849 227.846 152.496C224.709 150.143 221.964 148.77 221.964 149.358C221.964 149.751 224.709 152.104 227.846 154.457Z" fill="#2A3338"/>
<path d="M-595.832 197.992C-594.264 198.58 -590.538 195.05 -586.813 189.363C-583.48 184.264 -580.735 179.95 -580.931 179.95C-581.323 179.95 -585.245 183.872 -589.95 188.579C-595.636 194.266 -597.597 197.403 -595.832 197.992Z" fill="#2A3338"/>
<path d="M339.996 183.088C341.564 184.853 344.505 185.833 346.466 185.441C348.819 185.049 347.838 184.068 343.329 182.5C337.447 180.146 337.055 180.342 339.996 183.088Z" fill="#2A3338"/>
<path d="M-319.249 191.519L-319.574 191.128C-322.319 188.186 -324.672 185.833 -325.064 185.833C-325.456 185.833 -325.456 192.697 -325.26 200.933L-324.868 216.229L-324.28 202.698L-323.495 189.363L-319.182 192.893C-315.563 195.941 -315.645 195.843 -319.249 191.519Z" fill="#2A3338"/>
<path d="M208.043 204.463C208.827 201.129 208.631 197.207 207.651 195.638C206.67 194.069 203.533 190.932 200.789 188.971L195.495 185.245L200.985 190.932C204.514 194.854 206.278 199.168 206.474 203.678L206.67 210.346L208.043 204.463Z" fill="#2A3338"/>
<path d="M-633.281 225.642C-626.419 225.053 -620.34 224.269 -619.948 223.877C-617.988 222.112 -640.535 223.288 -643.084 224.857C-644.849 226.034 -641.32 226.23 -633.281 225.642Z" fill="#2A3338"/>
<path d="M246.08 224.465C247.844 224.857 250.981 224.857 252.942 224.465C254.707 223.877 253.138 223.485 249.413 223.485C245.688 223.485 244.119 223.877 246.08 224.465Z" fill="#2A3338"/>
<path d="M-468.585 263.293C-467.997 263.685 -466.232 261.332 -464.467 258.194C-462.703 255.057 -461.527 252.507 -461.919 252.507C-463.291 252.507 -469.369 262.313 -468.585 263.293Z" fill="#2A3338"/>
<path d="M367.053 315.064C370.778 316.24 372.935 316.436 371.955 315.456C370.778 314.475 367.445 312.906 364.112 312.122C356.465 310.357 358.23 312.122 367.053 315.064Z" fill="#2A3338"/>
<path d="M-640.928 331.144C-638.967 329.771 -637.006 325.457 -636.222 321.927C-635.634 318.201 -635.438 314.671 -636.026 314.083C-636.418 313.495 -637.594 316.436 -638.379 320.554C-639.163 324.672 -640.731 329.379 -641.908 330.948C-643.868 333.497 -643.869 333.497 -640.928 331.144Z" fill="#2A3338"/>
<path d="M-769.547 323.3C-767.39 322.319 -764.449 319.966 -762.881 318.397C-759.352 313.887 -761.116 314.671 -767.783 320.358C-771.312 323.496 -772.096 324.673 -769.547 323.3Z" fill="#2A3338"/>
<path d="M-235.462 325.849C-233.893 328.006 -232.325 328.595 -231.932 327.222C-231.54 326.045 -231.736 323.888 -232.128 322.515C-232.913 320.751 -233.305 320.751 -233.305 322.712C-233.501 324.28 -234.481 324.673 -235.854 323.888C-237.422 322.908 -237.226 323.692 -235.462 325.849Z" fill="#2A3338"/>
<path d="M-364.278 364.285C-363.689 363.697 -362.709 356.441 -362.317 348.009C-361.729 339.772 -361.532 332.909 -361.728 332.909C-361.924 332.909 -363.689 336.242 -365.65 340.164C-368.395 345.851 -368.395 346.832 -366.042 344.871C-363.493 342.714 -363.297 343.89 -364.278 353.892C-364.866 360.167 -364.866 364.873 -364.278 364.285Z" fill="#2A3338"/>
<path d="M170.986 379.189C170.986 377.816 172.751 374.286 175.104 371.344C177.26 368.599 178.829 365.462 178.437 364.677C178.045 363.697 175.104 366.834 171.574 371.344C166.869 377.816 166.085 379.973 168.241 380.757C169.81 381.346 170.986 380.561 170.986 379.189Z" fill="#2A3338"/>
<path d="M-496.23 395.269C-496.034 396.053 -494.662 394.092 -493.093 391.151C-491.329 388.013 -490.348 385.072 -490.936 384.679C-491.721 383.895 -496.23 392.916 -496.23 395.269Z" fill="#2A3338"/>
<path d="M-690.728 421.35C-688.964 420.37 -683.866 415.859 -679.553 411.545C-675.435 407.035 -672.69 403.505 -673.671 403.701C-674.847 403.897 -679.749 408.211 -684.846 413.506C-689.944 418.801 -692.689 422.331 -690.728 421.35Z" fill="#2A3338"/>
<path d="M-298.007 430.567C-297.027 429.194 -296.438 422.919 -296.634 416.644C-296.634 410.565 -297.027 405.466 -297.223 405.466C-297.615 405.466 -298.791 406.643 -299.967 408.211C-301.732 410.369 -301.732 411.349 -299.967 412.33C-298.595 413.31 -298.007 417.232 -298.595 423.507C-299.183 429.39 -298.987 432.136 -298.007 430.567Z" fill="#2A3338"/>
<path d="M-388.394 442.921C-388.394 441.156 -385.649 436.45 -382.315 432.332C-376.041 424.684 -375.845 423.9 -380.551 426.841C-382.12 428.018 -383.884 428.41 -384.668 427.822C-385.453 427.429 -387.217 428.606 -388.59 430.567C-391.138 433.508 -390.943 433.705 -387.805 431.155C-383.1 427.429 -383.688 430.763 -389.374 439.195C-392.119 443.117 -393.491 446.843 -392.511 447.432C-390.354 448.804 -388.394 446.647 -388.394 442.921Z" fill="#2A3338"/>
<path d="M0.604492 433.705C0.800537 432.724 0.800537 430.959 0.604492 429.979C0.604492 428.802 -1.3562 427.822 -3.51294 427.822C-7.04211 427.822 -7.04224 428.214 -2.53271 434.097C0.212158 437.627 2.36914 441.156 2.36914 441.745C2.36914 443.51 16.4857 466.257 17.4661 466.257C18.2504 466.257 4.91785 441.352 1.97681 437.627C0.99646 436.254 0.408447 434.489 0.604492 433.705Z" fill="#2A3338"/>
<path d="M95.1084 435.077C99.6179 438.411 100.598 438.607 98.6377 436.254C95.8928 432.724 88.6384 428.018 88.6384 429.782C88.6384 430.371 91.5792 432.724 95.1084 435.077Z" fill="#2A3338"/>
<path d="M86.6775 440.764C88.246 442.921 88.4423 442.137 87.4619 437.823C85.8934 430.567 84.717 428.998 84.717 434.097C84.717 436.058 85.6971 439.195 86.6775 440.764Z" fill="#2A3338"/>
<path d="M46.4841 456.648L41.7786 452.726C39.2297 450.373 36.2885 448.608 35.1121 448.608C32.7593 448.608 32.9554 448.608 40.6021 453.315L46.4841 456.648Z" fill="#2A3338"/>
<path d="M-302.124 528.617C-302.124 529.402 -298.987 525.284 -295.066 519.597C-291.145 513.714 -288.4 508.615 -288.988 508.223C-289.772 507.438 -302.124 526.46 -302.124 528.617Z" fill="#2A3338"/>
<path d="M15.1133 523.323C16.0936 522.734 14.3292 521.165 11.1921 519.989C2.1731 516.067 -1.55237 516.851 6.29028 520.773C10.0155 522.734 13.9369 523.911 15.1133 523.323Z" fill="#2A3338"/>
<path d="M-351.925 572.152C-350.749 572.152 -347.808 569.995 -345.259 567.249C-339.377 560.974 -340.553 561.17 -348.2 567.249C-351.337 569.995 -353.102 572.152 -351.925 572.152Z" fill="#2A3338"/>
<path d="M-157.425 598.037C-148.994 610.783 -148.21 608.43 -156.641 595.292C-162.915 585.683 -165.072 584.31 -167.425 588.232C-168.209 589.605 -168.013 589.801 -166.64 589.016C-165.268 588.232 -161.543 591.958 -157.425 598.037Z" fill="#2A3338"/>
</svg>
