<svg width="278" height="139" viewBox="0 0 278 139" fill="none" xmlns="http://www.w3.org/2000/svg">
<path d="M-38.9021 116.753L-96.2532 139L-111 114.37C-104.446 111.722 -89.3711 108.808 -77.901 108.014L-19.2397 87.0914C-6.13099 77.2924 -3.18158 73.3198 -4.16473 67.4934C-4.82016 63.5208 -4.49211 62.4613 -3.50896 65.1097C-0.887222 71.4659 1.73473 70.9363 12.8771 61.1372C29.263 46.8358 41.7158 32.0048 45.9761 21.9409L49.9087 12.6716L48.2703 21.676C46.9594 26.4431 40.4051 36.5071 33.523 44.1875C20.0866 58.4888 21.0697 61.402 37.7833 56.6349C43.3545 55.0458 48.5983 54.2514 49.5814 54.781C50.2368 55.5756 44.6654 57.4294 36.8002 59.2833C24.347 62.4614 -17.6008 89.7399 -14.3236 92.3883C-13.6682 92.918 -8.75243 92.3882 -3.50896 90.7992C1.73451 89.475 20.0866 86.5618 37.1279 84.4431C92.1843 77.8221 145.274 56.8997 145.274 41.539C145.274 37.5664 150.518 30.4157 158.383 23.5299C166.904 16.1144 171.492 9.49342 171.819 4.46147C172.147 -0.0408059 172.803 -1.36504 173.786 1.5482C174.441 3.93175 177.063 6.05051 179.029 6.05051C180.996 6.05051 176.735 11.0824 169.198 17.4386C154.451 29.8861 148.552 37.5664 148.552 45.2468C148.552 51.6029 137.737 59.2833 116.108 68.5527C96.1172 76.7627 98.083 78.8814 123.973 76.233C136.754 75.1736 147.896 71.2011 166.904 61.402C181.323 54.2513 195.743 45.5116 199.348 42.0687C202.953 38.361 210.49 34.9181 215.733 33.8587C225.237 32.5345 225.237 32.5345 217.372 35.1829C213.112 36.7719 204.919 41.8039 199.348 46.571C193.449 51.3381 181.979 58.4888 173.458 62.4614C164.61 66.434 158.055 70.4066 158.711 70.9362C161.988 73.3198 216.061 56.1052 229.17 48.6897C247.522 38.361 247.85 39.95 229.825 51.6029C222.288 56.37 206.229 62.991 194.432 65.9043C174.441 71.4659 173.786 71.7307 182.962 73.5846C188.533 74.3791 203.28 78.0869 215.733 81.7947C228.514 85.2376 247.522 89.2102 258.337 90.7992L278 93.1827L257.354 92.1234L236.38 91.3289L238.346 98.2147C239.985 105.101 239.985 104.836 235.069 97.1554C230.809 90.5344 225.893 87.886 207.868 83.6486C196.07 80.4705 182.306 77.2924 177.718 76.4979C169.525 75.1737 53.8412 90.5343 32.2119 96.096C26.9684 97.4202 16.8096 99.274 10.2552 100.069L-38.9021 116.753Z" fill="#1C252A"/>
<path d="M243.589 27.5026C249.816 25.9135 253.421 25.6487 251.783 26.9729C249.816 28.2971 244.245 30.4158 238.674 31.4751C225.893 33.8587 228.842 31.4752 243.589 27.5026Z" fill="#1C252A"/>
</svg>
