<svg width="278" height="139" viewBox="0 0 278 139" fill="none" xmlns="http://www.w3.org/2000/svg">
<path d="M316.902 116.753L374.253 139L389 114.37C382.446 111.722 367.371 108.808 355.901 108.014L297.24 87.0914C284.131 77.2924 281.182 73.3198 282.165 67.4934C282.82 63.5208 282.492 62.4613 281.509 65.1097C278.887 71.4659 276.265 70.9363 265.123 61.1372C248.737 46.8358 236.284 32.0048 232.024 21.9409L228.091 12.6716L229.73 21.676C231.041 26.4431 237.595 36.5071 244.477 44.1875C257.913 58.4888 256.93 61.402 240.217 56.6349C234.646 55.0458 229.402 54.2514 228.419 54.781C227.763 55.5756 233.335 57.4294 241.2 59.2833C253.653 62.4614 295.601 89.7399 292.324 92.3883C291.668 92.918 286.752 92.3882 281.509 90.7992C276.265 89.475 257.913 86.5618 240.872 84.4431C185.816 77.8221 132.726 56.8997 132.726 41.539C132.726 37.5664 127.482 30.4157 119.617 23.5299C111.096 16.1144 106.508 9.49342 106.181 4.46147C105.853 -0.0408059 105.197 -1.36504 104.214 1.5482C103.559 3.93175 100.937 6.05051 98.9705 6.05051C97.0042 6.05051 101.265 11.0824 108.802 17.4386C123.549 29.8861 129.448 37.5664 129.448 45.2468C129.448 51.6029 140.263 59.2833 161.892 68.5527C181.883 76.7627 179.917 78.8814 154.027 76.233C141.246 75.1736 130.104 71.2011 111.096 61.402C96.6768 54.2513 82.2572 45.5116 78.6523 42.0687C75.0474 38.361 67.5101 34.9181 62.2666 33.8587C52.7628 32.5345 52.7626 32.5345 60.6278 35.1829C64.8881 36.7719 73.0811 41.8039 78.6523 46.571C84.5512 51.3381 96.0213 58.4888 104.542 62.4614C113.39 66.434 119.945 70.4066 119.289 70.9362C116.012 73.3198 61.9388 56.1052 48.8301 48.6897C30.4779 38.361 30.1503 39.95 48.1747 51.6029C55.7122 56.37 71.7705 62.991 83.5683 65.9043C103.559 71.4659 104.214 71.7307 95.0379 73.5846C89.4668 74.3791 74.7199 78.0869 62.2666 81.7947C49.4857 85.2376 30.4779 89.2102 19.6633 90.7992L0 93.1827L20.6463 92.1234L41.6203 91.3289L39.6538 98.2147C38.0152 105.101 38.0153 104.836 42.931 97.1554C47.1913 90.5344 52.1074 87.886 70.1318 83.6486C81.9296 80.4705 95.6936 77.2924 100.282 76.4979C108.475 75.1737 224.159 90.5343 245.788 96.096C251.032 97.4202 261.19 99.274 267.745 100.069L316.902 116.753Z" fill="#1C252A"/>
<path d="M34.4105 27.5026C28.1839 25.9135 24.5787 25.6487 26.2173 26.9729C28.1836 28.2971 33.7549 30.4158 39.3261 31.4751C52.1071 33.8587 49.1578 31.4752 34.4105 27.5026Z" fill="#1C252A"/>
</svg>
