<svg width="266" height="266" viewBox="0 0 266 266" fill="none" xmlns="http://www.w3.org/2000/svg">
<rect width="266" height="266" rx="133" fill="#1B311C" fill-opacity="0.32"/>
<rect x="18" y="18" width="230" height="230" rx="115" fill="#1B311C"/>
<rect x="36" y="36" width="194" height="194" rx="97" fill="#1E3F1F"/>
<path d="M133 80.1875C122.555 80.1875 112.344 83.2849 103.659 89.088C94.974 94.8911 88.2049 103.139 84.2076 112.79C80.2104 122.44 79.1645 133.059 81.2023 143.303C83.2401 153.548 88.27 162.958 95.6559 170.344C103.042 177.73 112.452 182.76 122.697 184.798C132.941 186.836 143.56 185.79 153.21 181.792C162.861 177.795 171.109 171.026 176.912 162.341C182.715 153.656 185.813 143.445 185.813 133C185.798 118.998 180.229 105.573 170.328 95.6723C160.427 85.7712 147.002 80.2023 133 80.1875ZM156.187 123.687L127.749 152.124C127.372 152.502 126.924 152.802 126.431 153.006C125.938 153.21 125.409 153.316 124.875 153.316C124.341 153.316 123.813 153.21 123.319 153.006C122.826 152.802 122.378 152.502 122.001 152.124L109.813 139.937C109.051 139.174 108.623 138.141 108.623 137.062C108.623 135.984 109.051 134.951 109.813 134.188C110.576 133.426 111.609 132.998 112.688 132.998C113.766 132.998 114.799 133.426 115.562 134.188L124.875 143.507L150.438 117.938C150.816 117.561 151.264 117.261 151.757 117.057C152.25 116.853 152.779 116.748 153.313 116.748C153.846 116.748 154.375 116.853 154.868 117.057C155.361 117.261 155.809 117.561 156.187 117.938C156.564 118.316 156.864 118.764 157.068 119.257C157.272 119.75 157.377 120.279 157.377 120.812C157.377 121.346 157.272 121.875 157.068 122.368C156.864 122.861 156.564 123.309 156.187 123.687Z" fill="#0DA314"/>
</svg>
