<svg width="18" height="16" viewBox="0 0 18 16" fill="none" xmlns="http://www.w3.org/2000/svg">
<path d="M17.7806 8.53104L11.0306 15.281C10.8899 15.4218 10.699 15.5008 10.5 15.5008C10.301 15.5008 10.1101 15.4218 9.96937 15.281C9.82864 15.1403 9.74958 14.9494 9.74958 14.7504C9.74958 14.5514 9.82864 14.3605 9.96937 14.2198L15.4397 8.75042H0.75C0.551088 8.75042 0.360322 8.6714 0.21967 8.53075C0.0790178 8.3901 0 8.19933 0 8.00042C0 7.8015 0.0790178 7.61074 0.21967 7.47009C0.360322 7.32943 0.551088 7.25042 0.75 7.25042H15.4397L9.96937 1.78104C9.82864 1.64031 9.74958 1.44944 9.74958 1.25042C9.74958 1.05139 9.82864 0.860523 9.96937 0.719792C10.1101 0.579062 10.301 0.5 10.5 0.5C10.699 0.5 10.8899 0.579062 11.0306 0.719792L17.7806 7.46979C17.8504 7.53945 17.9057 7.62216 17.9434 7.71321C17.9812 7.80426 18.0006 7.90186 18.0006 8.00042C18.0006 8.09898 17.9812 8.19657 17.9434 8.28762C17.9057 8.37867 17.8504 8.46139 17.7806 8.53104Z" fill="#92A5A8"/>
</svg>
