<svg width="14" height="14" viewBox="0 0 14 14" fill="none" xmlns="http://www.w3.org/2000/svg">
<path d="M13.7504 10.7499V0.999949C13.7504 0.801036 13.6714 0.610271 13.5307 0.469618C13.3901 0.328965 13.1993 0.249949 13.0004 0.249949H3.25042C3.0515 0.249949 2.86074 0.328965 2.72009 0.469618C2.57943 0.610271 2.50042 0.801036 2.50042 0.999949C2.50042 1.19886 2.57943 1.38963 2.72009 1.53028C2.86074 1.67093 3.0515 1.74995 3.25042 1.74995H11.1901L0.469792 12.4693C0.329062 12.6101 0.25 12.8009 0.25 12.9999C0.25 13.199 0.329062 13.3898 0.469792 13.5306C0.610523 13.6713 0.801394 13.7504 1.00042 13.7504C1.19944 13.7504 1.39031 13.6713 1.53104 13.5306L12.2504 2.81026V10.7499C12.2504 10.9489 12.3294 11.1396 12.4701 11.2803C12.6107 11.4209 12.8015 11.4999 13.0004 11.4999C13.1993 11.4999 13.3901 11.4209 13.5307 11.2803C13.6714 11.1396 13.7504 10.9489 13.7504 10.7499Z" fill="#161E22"/>
</svg>
