<svg width="14" height="14" viewBox="0 0 14 14" fill="none" xmlns="http://www.w3.org/2000/svg">
<path d="M13.7504 3.25005V13.0001C13.7504 13.199 13.6714 13.3897 13.5307 13.5304C13.3901 13.671 13.1993 13.7501 13.0004 13.7501H3.25042C3.0515 13.7501 2.86074 13.671 2.72009 13.5304C2.57943 13.3897 2.50042 13.199 2.50042 13.0001C2.50042 12.8011 2.57943 12.6104 2.72009 12.4697C2.86074 12.3291 3.0515 12.2501 3.25042 12.2501H11.1901L0.469792 1.53068C0.329062 1.38995 0.25 1.19907 0.25 1.00005C0.25 0.801028 0.329062 0.610156 0.469792 0.469426C0.610523 0.328695 0.801394 0.249634 1.00042 0.249634C1.19944 0.249634 1.39031 0.328695 1.53104 0.469426L12.2504 11.1897V3.25005C12.2504 3.05114 12.3294 2.86037 12.4701 2.71972C12.6107 2.57907 12.8015 2.50005 13.0004 2.50005C13.1993 2.50005 13.3901 2.57907 13.5307 2.71972C13.6714 2.86037 13.7504 3.05114 13.7504 3.25005Z" fill="#33C5E0"/>
</svg>
