<svg width="17" height="18" viewBox="0 0 17 18" fill="none" xmlns="http://www.w3.org/2000/svg">
<path d="M8.5 0.875C6.34512 0.875 4.27849 1.73102 2.75476 3.25476C1.23102 4.77849 0.375 6.84512 0.375 9C0.375 11.1549 1.23102 13.2215 2.75476 14.7452C4.27849 16.269 6.34512 17.125 8.5 17.125C10.1805 17.125 11.9453 16.6187 13.2211 15.7711C13.2895 15.7256 13.3482 15.6672 13.394 15.599C13.4398 15.5309 13.4717 15.4543 13.4879 15.3739C13.5041 15.2934 13.5043 15.2105 13.4885 15.1299C13.4727 15.0493 13.4412 14.9727 13.3957 14.9043C13.3503 14.8359 13.2918 14.7772 13.2236 14.7314C13.1555 14.6856 13.079 14.6537 12.9985 14.6375C12.918 14.6213 12.8351 14.6211 12.7545 14.6369C12.6739 14.6527 12.5973 14.6842 12.5289 14.7297C11.4688 15.4359 9.92266 15.875 8.5 15.875C7.14025 15.875 5.81104 15.4718 4.68045 14.7164C3.54987 13.9609 2.66868 12.8872 2.14833 11.6309C1.62798 10.3747 1.49183 8.99237 1.7571 7.65875C2.02237 6.32513 2.67716 5.10013 3.63864 4.13864C4.60013 3.17716 5.82513 2.52237 7.15875 2.2571C8.49237 1.99183 9.87471 2.12798 11.1309 2.64833C12.3872 3.16868 13.4609 4.04987 14.2164 5.18045C14.9718 6.31104 15.375 7.64025 15.375 9C15.375 11.0664 14.525 11.5 13.8125 11.5C13.1 11.5 12.25 11.0664 12.25 9V5.875C12.25 5.70924 12.1842 5.55027 12.0669 5.43306C11.9497 5.31585 11.7908 5.25 11.625 5.25C11.4592 5.25 11.3003 5.31585 11.1831 5.43306C11.0658 5.55027 11 5.70924 11 5.875V6.20781C10.4391 5.70494 9.7398 5.38265 8.99314 5.28292C8.24647 5.18319 7.48707 5.31065 6.81388 5.64868C6.14069 5.98672 5.58491 6.51967 5.21894 7.17809C4.85298 7.83652 4.69379 8.5899 4.76213 9.34009C4.83046 10.0903 5.12315 10.8025 5.60206 11.384C6.08097 11.9654 6.7239 12.3892 7.44709 12.6C8.17028 12.8109 8.9402 12.799 9.65656 12.566C10.3729 12.333 11.0025 11.8897 11.4633 11.2937C11.932 12.2312 12.7406 12.75 13.8125 12.75C15.5734 12.75 16.625 11.3484 16.625 9C16.6227 6.84581 15.766 4.78051 14.2427 3.25727C12.7195 1.73403 10.6542 0.877275 8.5 0.875ZM8.5 11.5C8.00555 11.5 7.5222 11.3534 7.11107 11.0787C6.69995 10.804 6.37952 10.4135 6.1903 9.95671C6.00108 9.49989 5.95157 8.99723 6.04804 8.51227C6.1445 8.02732 6.3826 7.58186 6.73223 7.23223C7.08186 6.8826 7.52732 6.6445 8.01227 6.54804C8.49723 6.45157 8.99989 6.50108 9.45671 6.6903C9.91352 6.87952 10.304 7.19995 10.5787 7.61107C10.8534 8.0222 11 8.50555 11 9C11 9.66304 10.7366 10.2989 10.2678 10.7678C9.79893 11.2366 9.16304 11.5 8.5 11.5Z" fill="#33C5E0" fill-opacity="0.24"/>
</svg>
