<svg width="16" height="14" viewBox="0 0 16 14" fill="none" xmlns="http://www.w3.org/2000/svg">
<path d="M0.682814 7.44205L6.30781 13.067C6.42509 13.1843 6.58415 13.2502 6.75 13.2502C6.91585 13.2502 7.07491 13.1843 7.19219 13.067C7.30946 12.9498 7.37535 12.7907 7.37535 12.6249C7.37535 12.459 7.30946 12.2999 7.19219 12.1827L2.63359 7.62486H14.875C15.0408 7.62486 15.1997 7.55901 15.3169 7.4418C15.4342 7.32459 15.5 7.16562 15.5 6.99986C15.5 6.8341 15.4342 6.67513 15.3169 6.55792C15.1997 6.44071 15.0408 6.37486 14.875 6.37486H2.63359L7.19219 1.81705C7.30946 1.69977 7.37535 1.54071 7.37535 1.37486C7.37535 1.20901 7.30946 1.04995 7.19219 0.932672C7.07491 0.815396 6.91585 0.749512 6.75 0.749512C6.58415 0.749512 6.42509 0.815396 6.30781 0.932672L0.682814 6.55767C0.624703 6.61572 0.578604 6.68465 0.547151 6.76052C0.515698 6.8364 0.499511 6.91772 0.499511 6.99986C0.499511 7.08199 0.515698 7.16332 0.547151 7.2392C0.578604 7.31507 0.624703 7.384 0.682814 7.44205Z" fill="#BFC6C8"/>
</svg>
