<svg width="14" height="15" viewBox="0 0 14 15" fill="none" xmlns="http://www.w3.org/2000/svg">
<path d="M11.6181 2.41625C11.02 1.81211 10.3086 1.33188 9.52461 1.00307C8.74064 0.674248 7.89951 0.503296 7.04937 0.5H7C5.27609 0.5 3.62279 1.18482 2.40381 2.40381C1.18482 3.62279 0.5 5.27609 0.5 7V10.5C0.5 10.8978 0.658035 11.2794 0.93934 11.5607C1.22064 11.842 1.60218 12 2 12H3C3.39782 12 3.77936 11.842 4.06066 11.5607C4.34196 11.2794 4.5 10.8978 4.5 10.5V8C4.5 7.60218 4.34196 7.22064 4.06066 6.93934C3.77936 6.65804 3.39782 6.5 3 6.5H1.5225C1.61893 5.45746 2.01052 4.464 2.65139 3.63607C3.29226 2.80813 4.15585 2.18002 5.14094 1.82535C6.12603 1.47069 7.1918 1.40416 8.21335 1.63357C9.2349 1.86298 10.1699 2.37881 10.9087 3.12063C11.8118 4.02831 12.3673 5.22441 12.4781 6.5H11C10.6022 6.5 10.2206 6.65804 9.93934 6.93934C9.65804 7.22064 9.5 7.60218 9.5 8V10.5C9.5 10.8978 9.65804 11.2794 9.93934 11.5607C10.2206 11.842 10.6022 12 11 12H12.5C12.5 12.3978 12.342 12.7794 12.0607 13.0607C11.7794 13.342 11.3978 13.5 11 13.5H7.5C7.36739 13.5 7.24021 13.5527 7.14645 13.6464C7.05268 13.7402 7 13.8674 7 14C7 14.1326 7.05268 14.2598 7.14645 14.3536C7.24021 14.4473 7.36739 14.5 7.5 14.5H11C11.663 14.5 12.2989 14.2366 12.7678 13.7678C13.2366 13.2989 13.5 12.663 13.5 12V7C13.5033 6.14973 13.3387 5.30718 13.0158 4.52062C12.6929 3.73406 12.2179 3.01894 11.6181 2.41625ZM3 7.5C3.13261 7.5 3.25979 7.55268 3.35355 7.64645C3.44732 7.74021 3.5 7.86739 3.5 8V10.5C3.5 10.6326 3.44732 10.7598 3.35355 10.8536C3.25979 10.9473 3.13261 11 3 11H2C1.86739 11 1.74021 10.9473 1.64645 10.8536C1.55268 10.7598 1.5 10.6326 1.5 10.5V7.5H3ZM11 11C10.8674 11 10.7402 10.9473 10.6464 10.8536C10.5527 10.7598 10.5 10.6326 10.5 10.5V8C10.5 7.86739 10.5527 7.74021 10.6464 7.64645C10.7402 7.55268 10.8674 7.5 11 7.5H12.5V11H11Z" fill="#92A5A8"/>
</svg>
