<svg width="26" height="26" viewBox="0 0 26 26" fill="none" xmlns="http://www.w3.org/2000/svg">
<path d="M22.1927 3.80754C19.7547 1.36953 16.448 -0.000122096 13.0002 -0.00012207C9.5523 -0.000122045 6.24566 1.36953 3.80766 3.80754C1.36966 6.24554 2.56885e-08 9.55218 0 13C-2.56885e-08 16.4479 1.36966 19.7545 3.80766 22.1925C6.24566 24.6305 9.5523 26.0002 13.0002 26.0002C16.448 26.0002 19.7547 24.6305 22.1927 22.1925C24.6307 19.7545 26.0003 16.4479 26.0003 13C26.0003 9.55218 24.6307 6.24554 22.1927 3.80754ZM8.00016 22.7963V19H18.0002V22.7963C16.4508 23.5827 14.7377 23.9925 13.0002 23.9925C11.2626 23.9925 9.54956 23.5827 8.00016 22.7963ZM10.0002 15H16.0002V17H10.0002V15ZM11.7502 13L13.0002 7.00004L14.2502 13H11.7502ZM20.7777 20.7788C20.5277 21.0288 20.2677 21.2625 20.0002 21.4838V19C20.0002 18.4696 19.7894 17.9609 19.4144 17.5858C19.0393 17.2108 18.5306 17 18.0002 17V15C17.9995 14.5218 17.8276 14.0596 17.5155 13.6973C17.2034 13.335 16.7718 13.0965 16.2989 13.025L14.9577 6.59254C14.8635 6.14308 14.6175 5.73971 14.2611 5.4502C13.9046 5.16068 13.4594 5.00265 13.0002 5.00265C12.5409 5.00265 12.0957 5.16068 11.7393 5.4502C11.3828 5.73971 11.1368 6.14308 11.0427 6.59254L9.70141 13.025C9.22855 13.0965 8.79694 13.335 8.48483 13.6973C8.17272 14.0596 8.00077 14.5218 8.00016 15V17C7.46973 17 6.96102 17.2108 6.58595 17.5858C6.21087 17.9609 6.00016 18.4696 6.00016 19V21.4838C5.73266 21.2625 5.47266 21.0288 5.22266 20.7788C3.68409 19.2405 2.63625 17.2805 2.21166 15.1466C1.78707 13.0128 2.00479 10.801 2.8373 8.79086C3.66981 6.78076 5.07971 5.06268 6.88869 3.8539C8.69767 2.64512 10.8245 1.99994 13.0002 1.99994C15.1758 1.99994 17.3026 2.64512 19.1116 3.8539C20.9206 5.06268 22.3305 6.78076 23.163 8.79086C23.9955 10.801 24.2132 13.0128 23.7887 15.1466C23.3641 17.2805 22.3162 19.2405 20.7777 20.7788Z" fill="#33C5E0"/>
</svg>
