<svg width="18" height="18" viewBox="0 0 18 18" fill="none" xmlns="http://www.w3.org/2000/svg">
<path d="M16.8753 14.0625V9.5625C16.8753 9.41332 16.8161 9.27024 16.7106 9.16475C16.6051 9.05926 16.462 9 16.3128 9C16.1636 9 16.0206 9.05926 15.9151 9.16475C15.8096 9.27024 15.7503 9.41332 15.7503 9.5625V12.7048L9.96078 6.91453C9.90854 6.86223 9.8465 6.82074 9.77822 6.79243C9.70993 6.76413 9.63673 6.74956 9.56281 6.74956C9.48889 6.74956 9.4157 6.76413 9.34741 6.79243C9.27912 6.82074 9.21708 6.86223 9.16484 6.91453L6.75031 9.32977L2.08578 4.66453C1.98023 4.55898 1.83708 4.49969 1.68781 4.49969C1.53855 4.49969 1.39539 4.55898 1.28984 4.66453C1.1843 4.77008 1.125 4.91323 1.125 5.0625C1.125 5.21177 1.1843 5.35492 1.28984 5.46047L6.35234 10.523C6.40458 10.5753 6.46662 10.6168 6.53491 10.6451C6.6032 10.6734 6.67639 10.6879 6.75031 10.6879C6.82423 10.6879 6.89743 10.6734 6.96572 10.6451C7.034 10.6168 7.09604 10.5753 7.14828 10.523L9.56281 8.10773L14.9551 13.5H11.8128C11.6636 13.5 11.5206 13.5593 11.4151 13.6648C11.3096 13.7702 11.2503 13.9133 11.2503 14.0625C11.2503 14.2117 11.3096 14.3548 11.4151 14.4602C11.5206 14.5657 11.6636 14.625 11.8128 14.625H16.3128C16.462 14.625 16.6051 14.5657 16.7106 14.4602C16.8161 14.3548 16.8753 14.2117 16.8753 14.0625Z" fill="#CE0D0D"/>
</svg>
