<svg width="16" height="16" viewBox="0 0 16 16" fill="none" xmlns="http://www.w3.org/2000/svg">
<path d="M3.25 9H2.25C2.11739 9 1.99021 9.05268 1.89645 9.14645C1.80268 9.24021 1.75 9.36739 1.75 9.5V13C1.75 13.1326 1.80268 13.2598 1.89645 13.3536C1.99021 13.4473 2.11739 13.5 2.25 13.5H3.25C3.84674 13.5 4.41903 13.2629 4.84099 12.841C5.26295 12.419 5.5 11.8467 5.5 11.25C5.5 10.6533 5.26295 10.081 4.84099 9.65901C4.41903 9.23705 3.84674 9 3.25 9ZM3.25 12.5H2.75V10H3.25C3.58152 10 3.89946 10.1317 4.13388 10.3661C4.3683 10.6005 4.5 10.9185 4.5 11.25C4.5 11.5815 4.3683 11.8995 4.13388 12.1339C3.89946 12.3683 3.58152 12.5 3.25 12.5ZM13.8456 12.1931C13.9414 12.2848 13.9969 12.4108 13.9998 12.5433C14.0027 12.6759 13.9529 12.8042 13.8612 12.9C13.6872 13.0874 13.4766 13.2373 13.2425 13.3405C13.0085 13.4436 12.7558 13.4979 12.5 13.5C11.3969 13.5 10.5 12.4906 10.5 11.25C10.5 10.0094 11.3969 9 12.5 9C12.7558 9.00207 13.0085 9.05636 13.2425 9.15953C13.4766 9.2627 13.6872 9.41259 13.8612 9.6C13.9509 9.69618 13.9991 9.8238 13.9953 9.95523C13.9916 10.0867 13.9362 10.2113 13.8412 10.3022C13.7462 10.3931 13.6192 10.4429 13.4877 10.4409C13.3562 10.4388 13.2309 10.3851 13.1388 10.2913C13.0576 10.2019 12.9591 10.1301 12.8493 10.08C12.7395 10.0299 12.6207 10.0027 12.5 10C11.9487 10 11.5 10.5625 11.5 11.25C11.5 11.9375 11.9487 12.5 12.5 12.5C12.6207 12.4973 12.7395 12.4701 12.8493 12.42C12.9591 12.3699 13.0576 12.2981 13.1388 12.2087C13.2304 12.113 13.3564 12.0575 13.489 12.0546C13.6215 12.0516 13.7498 12.1015 13.8456 12.1931ZM8 9C6.89687 9 6 10.0094 6 11.25C6 12.4906 6.89687 13.5 8 13.5C9.10313 13.5 10 12.4906 10 11.25C10 10.0094 9.10313 9 8 9ZM8 12.5C7.44875 12.5 7 11.9375 7 11.25C7 10.5625 7.44875 10 8 10C8.55125 10 9 10.5625 9 11.25C9 11.9375 8.55125 12.5 8 12.5ZM3 7.5C3.13261 7.5 3.25979 7.44732 3.35355 7.35355C3.44732 7.25979 3.5 7.13261 3.5 7V2.5H9V5.5C9 5.63261 9.05268 5.75979 9.14645 5.85355C9.24021 5.94732 9.36739 6 9.5 6H12.5V7C12.5 7.13261 12.5527 7.25979 12.6464 7.35355C12.7402 7.44732 12.8674 7.5 13 7.5C13.1326 7.5 13.2598 7.44732 13.3536 7.35355C13.4473 7.25979 13.5 7.13261 13.5 7V5.5C13.5001 5.43432 13.4872 5.36927 13.4621 5.30858C13.437 5.24788 13.4002 5.19272 13.3538 5.14625L9.85375 1.64625C9.80728 1.59983 9.75212 1.56303 9.69143 1.53793C9.63073 1.51284 9.56568 1.49995 9.5 1.5H3.5C3.23478 1.5 2.98043 1.60536 2.79289 1.79289C2.60536 1.98043 2.5 2.23478 2.5 2.5V7C2.5 7.13261 2.55268 7.25979 2.64645 7.35355C2.74021 7.44732 2.86739 7.5 3 7.5ZM10 3.20688L11.7931 5H10V3.20688Z" fill="#92A5A8"/>
</svg>
