<svg width="12" height="13" viewBox="0 0 12 13" fill="none" xmlns="http://www.w3.org/2000/svg">
<path d="M11.1084 3.37112C11.2329 2.93289 11.2729 2.47127 11.2257 2.01537C11.1785 1.55946 11.0453 1.11916 10.8344 0.722229C10.7986 0.654651 10.7472 0.598536 10.6852 0.559527C10.6233 0.520518 10.553 0.49999 10.4815 0.500007C10.0069 0.498924 9.53876 0.618932 9.11432 0.850443C8.68988 1.08195 8.32096 1.41855 8.03704 1.83334H6.81481C6.53089 1.41855 6.16197 1.08195 5.73753 0.850443C5.31309 0.618932 4.8449 0.498924 4.37037 0.500007C4.29884 0.49999 4.22857 0.520518 4.16661 0.559527C4.10466 0.598536 4.05322 0.654651 4.01745 0.722229C3.80654 1.11916 3.67331 1.55946 3.62615 2.01537C3.579 2.47127 3.61894 2.93289 3.74347 3.37112C3.49176 3.8504 3.35692 4.3921 3.35185 4.94445V5.38889C3.35271 6.14089 3.60295 6.86716 4.05637 7.43359C4.50979 8.00001 5.13577 8.36834 5.8187 8.47056C5.53994 8.8597 5.38863 9.33946 5.38889 9.83333V10.2778H4.16667C3.84251 10.2778 3.53164 10.1373 3.30243 9.88725C3.07321 9.63721 2.94444 9.29807 2.94444 8.94445C2.94444 8.65262 2.89175 8.36365 2.78938 8.09404C2.68701 7.82443 2.53697 7.57945 2.34781 7.3731C2.15865 7.16675 1.93409 7.00306 1.68695 6.89138C1.4398 6.7797 1.17491 6.72223 0.907407 6.72223C0.799356 6.72223 0.695731 6.76905 0.619327 6.8524C0.542923 6.93575 0.5 7.0488 0.5 7.16667C0.5 7.28454 0.542923 7.39759 0.619327 7.48094C0.695731 7.56429 0.799356 7.61111 0.907407 7.61111C1.23156 7.61111 1.54244 7.75159 1.77165 8.00164C2.00086 8.25169 2.12963 8.59083 2.12963 8.94445C2.12963 9.53382 2.34425 10.099 2.72626 10.5158C3.10828 10.9325 3.62641 11.1667 4.16667 11.1667H5.38889V12.0556C5.38889 12.1734 5.43181 12.2865 5.50822 12.3698C5.58462 12.4532 5.68825 12.5 5.7963 12.5C5.90435 12.5 6.00797 12.4532 6.08438 12.3698C6.16078 12.2865 6.2037 12.1734 6.2037 12.0556V9.83333C6.2037 9.47971 6.33247 9.14057 6.56168 8.89053C6.79089 8.64048 7.10177 8.5 7.42593 8.5C7.75008 8.5 8.06096 8.64048 8.29017 8.89053C8.51938 9.14057 8.64815 9.47971 8.64815 9.83333V12.0556C8.64815 12.1734 8.69107 12.2865 8.76747 12.3698C8.84388 12.4532 8.9475 12.5 9.05556 12.5C9.16361 12.5 9.26723 12.4532 9.34364 12.3698C9.42004 12.2865 9.46296 12.1734 9.46296 12.0556V9.83333C9.46323 9.33946 9.31191 8.8597 9.03315 8.47056C9.71609 8.36834 10.3421 8.00001 10.7955 7.43359C11.2489 6.86716 11.4991 6.14089 11.5 5.38889V4.94445C11.4949 4.3921 11.3601 3.8504 11.1084 3.37112ZM10.6852 5.38889C10.6852 5.97826 10.4706 6.54349 10.0886 6.96024C9.70653 7.37699 9.1884 7.61111 8.64815 7.61111H6.2037C5.66345 7.61111 5.14532 7.37699 4.7633 6.96024C4.38128 6.54349 4.16667 5.97826 4.16667 5.38889V4.94445C4.17166 4.50002 4.29363 4.06652 4.51806 3.69556C4.55989 3.6354 4.58699 3.56461 4.59679 3.48986C4.60659 3.41512 4.59877 3.33888 4.57407 3.26834C4.46796 2.96978 4.41689 2.65131 4.42379 2.33119C4.43069 2.01106 4.49543 1.69557 4.61431 1.40278C4.94773 1.44191 5.2688 1.5624 5.55372 1.75532C5.83865 1.94824 6.08012 2.20865 6.26023 2.51723C6.29694 2.57984 6.34745 2.63141 6.40714 2.66723C6.46684 2.70304 6.53382 2.72195 6.60194 2.72223H8.2494C8.31778 2.72223 8.38507 2.70345 8.44506 2.66763C8.50504 2.6318 8.5558 2.58008 8.59264 2.51723C8.77273 2.20862 9.01419 1.9482 9.29912 1.75527C9.58405 1.56235 9.90513 1.44187 10.2386 1.40278C10.3573 1.69564 10.4218 2.01117 10.4286 2.3313C10.4353 2.65143 10.3841 2.96985 10.2778 3.26834C10.2532 3.3382 10.2449 3.41367 10.2538 3.48789C10.2627 3.56211 10.2884 3.63273 10.3287 3.69334C10.5554 4.0643 10.6791 4.49869 10.6852 4.94445V5.38889Z" fill="#F0FFF9"/>
</svg>
