<svg width="15" height="14" viewBox="0 0 15 14" fill="none" xmlns="http://www.w3.org/2000/svg">
<path d="M14.2504 3.24993V12.9999C14.2504 13.1988 14.1714 13.3896 14.0307 13.5303C13.8901 13.6709 13.6993 13.7499 13.5004 13.7499H3.75042C3.5515 13.7499 3.36074 13.6709 3.22009 13.5303C3.07943 13.3896 3.00042 13.1988 3.00042 12.9999C3.00042 12.801 3.07943 12.6103 3.22009 12.4696C3.36074 12.3289 3.5515 12.2499 3.75042 12.2499H11.6901L0.969792 1.53055C0.829062 1.38982 0.75 1.19895 0.75 0.999929C0.75 0.800906 0.829062 0.610034 0.969792 0.469304C1.11052 0.328573 1.30139 0.249512 1.50042 0.249512C1.69944 0.249512 1.89031 0.328573 2.03104 0.469304L12.7504 11.1896V3.24993C12.7504 3.05102 12.8294 2.86025 12.9701 2.7196C13.1107 2.57895 13.3015 2.49993 13.5004 2.49993C13.6993 2.49993 13.8901 2.57895 14.0307 2.7196C14.1714 2.86025 14.2504 3.05102 14.2504 3.24993Z" fill="#425558"/>
</svg>
