<svg width="16" height="16" viewBox="0 0 16 16" fill="none" xmlns="http://www.w3.org/2000/svg">
<path d="M15 13H14V8.50004L14.1462 8.64629C14.2402 8.74011 14.3676 8.79275 14.5004 8.79263C14.6332 8.79252 14.7606 8.73965 14.8544 8.64566C14.9482 8.55168 15.0008 8.42427 15.0007 8.29147C15.0006 8.15867 14.9477 8.03136 14.8538 7.93754L8.70687 1.79254C8.51936 1.60514 8.2651 1.49988 8 1.49988C7.7349 1.49988 7.48064 1.60514 7.29313 1.79254L1.14625 7.93754C1.05251 8.03136 0.999884 8.15858 0.999943 8.2912C1 8.42382 1.05274 8.55099 1.14656 8.64473C1.24038 8.73846 1.3676 8.79109 1.50022 8.79103C1.63284 8.79098 1.76001 8.73823 1.85375 8.64441L2 8.50004V13H1C0.867392 13 0.740215 13.0527 0.646447 13.1465C0.552678 13.2403 0.5 13.3674 0.5 13.5C0.5 13.6326 0.552678 13.7598 0.646447 13.8536C0.740215 13.9474 0.867392 14 1 14H15C15.1326 14 15.2598 13.9474 15.3536 13.8536C15.4473 13.7598 15.5 13.6326 15.5 13.5C15.5 13.3674 15.4473 13.2403 15.3536 13.1465C15.2598 13.0527 15.1326 13 15 13ZM3 7.50004L8 2.50004L13 7.50004V13H10V9.50004C10 9.36743 9.94732 9.24025 9.85355 9.14649C9.75979 9.05272 9.63261 9.00004 9.5 9.00004H6.5C6.36739 9.00004 6.24021 9.05272 6.14645 9.14649C6.05268 9.24025 6 9.36743 6 9.50004V13H3V7.50004ZM9 13H7V10H9V13Z" fill="#33C5E0"/>
</svg>
