<svg width="30" height="32" viewBox="0 0 30 32" fill="none" xmlns="http://www.w3.org/2000/svg">
<path d="M27.5 0.25H2.5C1.83696 0.25 1.20107 0.513392 0.732233 0.982233C0.263392 1.45107 0 2.08696 0 2.75V11.5C0 19.7375 3.9875 24.7297 7.33281 27.4672C10.9359 30.4141 14.5203 31.4156 14.6766 31.4562C14.8914 31.5147 15.118 31.5147 15.3328 31.4562C15.4891 31.4156 19.0688 30.4141 22.6766 27.4672C26.0125 24.7297 30 19.7375 30 11.5V2.75C30 2.08696 29.7366 1.45107 29.2678 0.982233C28.7989 0.513392 28.163 0.25 27.5 0.25ZM13.75 9C13.75 8.66848 13.8817 8.35054 14.1161 8.11612C14.3505 7.8817 14.6685 7.75 15 7.75C15.3315 7.75 15.6495 7.8817 15.8839 8.11612C16.1183 8.35054 16.25 8.66848 16.25 9V15.25C16.25 15.5815 16.1183 15.8995 15.8839 16.1339C15.6495 16.3683 15.3315 16.5 15 16.5C14.6685 16.5 14.3505 16.3683 14.1161 16.1339C13.8817 15.8995 13.75 15.5815 13.75 15.25V9ZM15 22.75C14.6292 22.75 14.2666 22.64 13.9583 22.434C13.65 22.228 13.4096 21.9351 13.2677 21.5925C13.1258 21.2499 13.0887 20.8729 13.161 20.5092C13.2334 20.1455 13.412 19.8114 13.6742 19.5492C13.9364 19.287 14.2705 19.1084 14.6342 19.036C14.9979 18.9637 15.3749 19.0008 15.7175 19.1427C16.0601 19.2846 16.353 19.525 16.559 19.8333C16.765 20.1416 16.875 20.5042 16.875 20.875C16.875 21.3723 16.6775 21.8492 16.3258 22.2008C15.9742 22.5525 15.4973 22.75 15 22.75Z" fill="#33C5E0"/>
</svg>
