<svg width="13" height="14" viewBox="0 0 13 14" fill="none" xmlns="http://www.w3.org/2000/svg">
<path d="M7.25 7.00026C7.25 7.1486 7.20601 7.29361 7.1236 7.41694C7.04119 7.54028 6.92406 7.63641 6.78701 7.69317C6.64997 7.74994 6.49917 7.76479 6.35368 7.73585C6.2082 7.70691 6.07456 7.63548 5.96967 7.53059C5.86478 7.4257 5.79335 7.29207 5.76441 7.14658C5.73547 7.0011 5.75032 6.8503 5.80709 6.71325C5.86386 6.57621 5.95999 6.45907 6.08332 6.37666C6.20666 6.29425 6.35166 6.25026 6.5 6.25026C6.69891 6.25026 6.88968 6.32928 7.03033 6.46993C7.17098 6.61059 7.25 6.80135 7.25 7.00026ZM3.75 6.25026C3.60166 6.25026 3.45666 6.29425 3.33332 6.37666C3.20999 6.45907 3.11386 6.57621 3.05709 6.71325C3.00032 6.8503 2.98547 7.0011 3.01441 7.14658C3.04335 7.29207 3.11478 7.4257 3.21967 7.53059C3.32456 7.63548 3.4582 7.70691 3.60368 7.73585C3.74917 7.76479 3.89997 7.74994 4.03701 7.69317C4.17406 7.63641 4.29119 7.54028 4.3736 7.41694C4.45601 7.29361 4.5 7.1486 4.5 7.00026C4.5 6.80135 4.42098 6.61059 4.28033 6.46993C4.13968 6.32928 3.94891 6.25026 3.75 6.25026ZM9.25 6.25026C9.10166 6.25026 8.95666 6.29425 8.83332 6.37666C8.70999 6.45907 8.61386 6.57621 8.55709 6.71325C8.50033 6.8503 8.48547 7.0011 8.51441 7.14658C8.54335 7.29207 8.61478 7.4257 8.71967 7.53059C8.82456 7.63548 8.9582 7.70691 9.10368 7.73585C9.24917 7.76479 9.39997 7.74994 9.53701 7.69317C9.67406 7.63641 9.79119 7.54028 9.8736 7.41694C9.95601 7.29361 10 7.1486 10 7.00026C10 6.80135 9.92098 6.61059 9.78033 6.46993C9.63968 6.32928 9.44891 6.25026 9.25 6.25026ZM13 7.00026C13.0002 8.12247 12.7099 9.22563 12.1574 10.2024C11.6048 11.1791 10.8087 11.9961 9.84669 12.5739C8.88466 13.1517 7.78942 13.4706 6.66759 13.4995C5.54575 13.5285 4.43554 13.2665 3.445 12.739L1.31687 13.4484C1.14068 13.5071 0.951599 13.5157 0.770829 13.473C0.590059 13.4304 0.424742 13.3382 0.293407 13.2069C0.162072 13.0755 0.0699091 12.9102 0.0272484 12.7294C-0.0154122 12.5487 -0.00688479 12.3596 0.0518748 12.1834L0.76125 10.0553C0.297593 9.18353 0.0386232 8.21763 0.00399834 7.23087C-0.0306265 6.24411 0.160003 5.26243 0.561418 4.36035C0.962833 3.45826 1.56448 2.65948 2.3207 2.02463C3.07691 1.38979 3.96782 0.935562 4.92579 0.696436C5.88376 0.457309 6.88362 0.439567 7.84948 0.644556C8.81533 0.849545 9.72179 1.27188 10.5001 1.8795C11.2783 2.48711 11.9079 3.26405 12.3411 4.15132C12.7743 5.0386 12.9996 6.0129 13 7.00026ZM12 7.00026C11.9998 6.15659 11.8054 5.32428 11.4321 4.56773C11.0587 3.81118 10.5163 3.15066 9.84676 2.63728C9.17726 2.12391 8.39863 1.77143 7.57111 1.60713C6.74359 1.44283 5.88936 1.4711 5.07452 1.68976C4.25968 1.90842 3.50606 2.31161 2.87197 2.86813C2.23788 3.42466 1.74032 4.11959 1.41779 4.89918C1.09525 5.67876 0.956387 6.5221 1.01193 7.36394C1.06748 8.20579 1.31595 9.02357 1.73812 9.75401C1.77356 9.81534 1.79556 9.88349 1.80267 9.95396C1.80978 10.0244 1.80184 10.0956 1.77937 10.1628L1 12.5003L3.3375 11.7209C3.38841 11.7035 3.44183 11.6947 3.49562 11.6946C3.58344 11.6948 3.66966 11.7181 3.74562 11.7621C4.58175 12.2459 5.53054 12.5009 6.49653 12.5015C7.46251 12.5021 8.41162 12.2483 9.24836 11.7656C10.0851 11.2829 10.7799 10.5883 11.263 9.7518C11.746 8.91526 12.0002 7.96625 12 7.00026Z" fill="#FCFFFF"/>
</svg>
