<svg width="16" height="17" viewBox="0 0 16 17" fill="none" xmlns="http://www.w3.org/2000/svg">
<path d="M14.8727 11.3795L11.1922 9.73031L11.182 9.72562C10.991 9.6439 10.7825 9.61111 10.5756 9.6302C10.3687 9.6493 10.1698 9.71969 9.99688 9.835C9.97653 9.84844 9.95696 9.86305 9.93829 9.87875L8.03673 11.4998C6.83204 10.9147 5.58829 9.68031 5.00313 8.49125L6.62657 6.56078C6.64219 6.54125 6.65704 6.52172 6.6711 6.50062C6.78393 6.3282 6.85239 6.13056 6.87039 5.92529C6.88838 5.72002 6.85534 5.51348 6.77423 5.32406V5.31469L5.12032 1.62797C5.01308 1.38052 4.8287 1.17438 4.59468 1.04034C4.36067 0.906297 4.08958 0.85153 3.82188 0.884217C2.76326 1.02352 1.79155 1.54341 1.08824 2.34679C0.384919 3.15017 -0.00190698 4.1821 7.06925e-06 5.24984C7.06925e-06 11.453 5.04688 16.4998 11.25 16.4998C12.3177 16.5018 13.3497 16.1149 14.1531 15.4116C14.9564 14.7083 15.4763 13.7366 15.6156 12.678C15.6484 12.4104 15.5937 12.1393 15.4598 11.9053C15.3259 11.6713 15.12 11.4869 14.8727 11.3795ZM11.25 15.2498C8.59873 15.2469 6.05687 14.1924 4.18214 12.3177C2.3074 10.443 1.2529 7.90112 1.25001 5.24984C1.24707 4.48694 1.52192 3.74906 2.02324 3.17399C2.52456 2.59892 3.21806 2.22599 3.97423 2.12484C3.97392 2.12796 3.97392 2.1311 3.97423 2.13422L5.61485 5.80609L4.00001 7.7389C3.98362 7.75776 3.96873 7.77788 3.95548 7.79906C3.83791 7.97947 3.76894 8.18718 3.75525 8.40208C3.74156 8.61697 3.78362 8.83176 3.87735 9.02562C4.58516 10.4733 6.04376 11.9209 7.50704 12.628C7.70232 12.7208 7.91835 12.7614 8.13402 12.7458C8.3497 12.7302 8.55763 12.6589 8.73751 12.5389C8.75756 12.5254 8.77687 12.5108 8.79532 12.4952L10.6945 10.8748L14.3664 12.5194C14.3664 12.5194 14.3727 12.5194 14.375 12.5194C14.2751 13.2766 13.9027 13.9715 13.3275 14.4741C12.7524 14.9766 12.0138 15.2524 11.25 15.2498Z" fill="#33C5E0" fill-opacity="0.24"/>
</svg>
