<svg width="16" height="16" viewBox="0 0 16 16" fill="none" xmlns="http://www.w3.org/2000/svg">
<g clip-path="url(#clip0_775_22900)">
<path d="M13.8361 6.50688C13.7053 6.52877 13.5886 6.60171 13.5116 6.70966C13.4346 6.81761 13.4036 6.95172 13.4255 7.08251C13.4762 7.3857 13.5017 7.69259 13.5017 8.00001C13.5029 9.34638 13.0081 10.646 12.1117 11.6506C11.5541 10.8426 10.77 10.2174 9.85798 9.85376C10.3479 9.46791 10.7053 8.939 10.8807 8.34057C11.056 7.74214 11.0405 7.10394 10.8364 6.51472C10.6322 5.92551 10.2495 5.41456 9.74144 5.05294C9.23341 4.69132 8.62532 4.49699 8.00173 4.49699C7.37814 4.49699 6.77004 4.69132 6.26201 5.05294C5.75398 5.41456 5.37127 5.92551 5.16709 6.51472C4.96291 7.10394 4.94742 7.74214 5.12277 8.34057C5.29812 8.939 5.65559 9.46791 6.14548 9.85376C5.23349 10.2174 4.44937 10.8426 3.89173 11.6506C3.18842 10.8581 2.72902 9.8793 2.56875 8.83191C2.40848 7.78451 2.55418 6.71312 2.98831 5.74655C3.42244 4.77998 4.12654 3.95939 5.01593 3.38345C5.90532 2.80751 6.94214 2.50073 8.00173 2.50001C8.30914 2.49996 8.61603 2.52546 8.91923 2.57626C9.04942 2.5968 9.18246 2.5651 9.28941 2.48806C9.39635 2.41102 9.46855 2.29487 9.4903 2.16487C9.51205 2.03487 9.48159 1.90154 9.40554 1.79389C9.3295 1.68623 9.21402 1.61296 9.08423 1.59001C7.72638 1.36158 6.33106 1.57059 5.09975 2.18687C3.86843 2.80314 2.86483 3.79479 2.23384 5.01863C1.60285 6.24247 1.37713 7.63518 1.58927 8.99567C1.80141 10.3562 2.44043 11.614 3.41407 12.5877C4.3877 13.5613 5.64557 14.2003 7.00606 14.4125C8.36655 14.6246 9.75926 14.3989 10.9831 13.7679C12.2069 13.1369 13.1986 12.1333 13.8149 10.902C14.4311 9.67067 14.6402 8.27536 14.4117 6.91751C14.3898 6.78672 14.3169 6.66999 14.209 6.59299C14.101 6.51598 13.9669 6.48501 13.8361 6.50688ZM6.00173 7.50001C6.00173 7.10444 6.11902 6.71776 6.33879 6.38887C6.55855 6.05997 6.87091 5.80362 7.23636 5.65225C7.60181 5.50087 8.00394 5.46127 8.39191 5.53844C8.77987 5.61561 9.13623 5.80609 9.41594 6.08579C9.69564 6.3655 9.88613 6.72186 9.9633 7.10983C10.0405 7.49779 10.0009 7.89992 9.84948 8.26537C9.69811 8.63083 9.44176 8.94318 9.11287 9.16295C8.78397 9.38271 8.39729 9.50001 8.00173 9.50001C7.47129 9.50001 6.96258 9.28929 6.58751 8.91422C6.21244 8.53915 6.00173 8.03044 6.00173 7.50001ZM4.63173 12.3438C4.99343 11.7781 5.49173 11.3125 6.08068 10.99C6.66962 10.6676 7.33027 10.4985 8.00173 10.4985C8.67318 10.4985 9.33383 10.6676 9.92277 10.99C10.5117 11.3125 11.01 11.7781 11.3717 12.3438C10.4082 13.0931 9.22236 13.5 8.00173 13.5C6.78109 13.5 5.59527 13.0931 4.63173 12.3438ZM14.8555 2.85376L12.8555 4.85376C12.809 4.90025 12.7539 4.93712 12.6932 4.96229C12.6325 4.98745 12.5674 5.0004 12.5017 5.0004C12.436 5.0004 12.371 4.98745 12.3103 4.96229C12.2496 4.93712 12.1944 4.90025 12.148 4.85376L11.148 3.85376C11.1015 3.8073 11.0647 3.75215 11.0395 3.69146C11.0144 3.63076 11.0014 3.5657 11.0014 3.50001C11.0014 3.43431 11.0144 3.36926 11.0395 3.30856C11.0647 3.24786 11.1015 3.19271 11.148 3.14626C11.2418 3.05244 11.369 2.99973 11.5017 2.99973C11.5674 2.99973 11.6325 3.01267 11.6932 3.03781C11.7539 3.06295 11.809 3.0998 11.8555 3.14626L12.5017 3.79313L14.148 2.14626C14.1944 2.0998 14.2496 2.06295 14.3103 2.03781C14.371 2.01267 14.436 1.99973 14.5017 1.99973C14.5674 1.99973 14.6325 2.01267 14.6932 2.03781C14.7539 2.06295 14.809 2.0998 14.8555 2.14626C14.9019 2.19271 14.9388 2.24786 14.9639 2.30856C14.9891 2.36926 15.002 2.43431 15.002 2.50001C15.002 2.5657 14.9891 2.63076 14.9639 2.69146C14.9388 2.75215 14.9019 2.8073 14.8555 2.85376Z" fill="#161E22"/>
</g>
<defs>
<clipPath id="clip0_775_22900">
<rect width="16" height="16" fill="white"/>
</clipPath>
</defs>
</svg>
