<svg width="14" height="13" viewBox="0 0 14 13" fill="none" xmlns="http://www.w3.org/2000/svg">
<path d="M13.3192 0.631291C13.2473 0.567071 13.1598 0.524361 13.0661 0.507761C12.9724 0.491162 12.8761 0.501302 12.7876 0.53709L1.02617 5.29573C0.859487 5.36275 0.718368 5.48393 0.624061 5.64103C0.529754 5.79814 0.487364 5.98266 0.503272 6.16683C0.519181 6.351 0.592527 6.52484 0.712268 6.66218C0.83201 6.79952 0.991665 6.89293 1.1672 6.92835L4.21463 7.54695V11.06C4.21403 11.2513 4.26903 11.4385 4.37251 11.5971C4.47599 11.7558 4.62317 11.8786 4.79499 11.9498C4.96653 12.0222 5.15519 12.0396 5.33642 11.9997C5.51765 11.9598 5.68308 11.8644 5.81118 11.726L7.28064 10.1504L9.61192 12.26C9.78011 12.4142 9.99704 12.4996 10.2219 12.5C10.3204 12.4999 10.4183 12.4839 10.512 12.4526C10.6652 12.4023 10.803 12.3115 10.9116 12.1891C11.0203 12.0666 11.096 11.9169 11.1313 11.7548L13.4869 1.1599C13.508 1.06434 13.5035 0.964666 13.474 0.871545C13.4444 0.778425 13.3909 0.695372 13.3192 0.631291ZM9.77093 2.79131L4.57155 6.64095L1.693 6.05714L9.77093 2.79131ZM5.1432 11.06V8.21116L6.58189 9.51557L5.1432 11.06ZM10.223 11.54L5.42467 7.18995L12.3309 2.0725L10.223 11.54Z" fill="#F0FFF9"/>
</svg>
