<svg width="19" height="18" viewBox="0 0 19 18" fill="none" xmlns="http://www.w3.org/2000/svg">
<path d="M18.5 1.5V11.25C18.5 11.6478 18.342 12.0294 18.0607 12.3107C17.7794 12.592 17.3978 12.75 17 12.75H6.81031L7.78063 13.7194C7.85031 13.7891 7.90558 13.8718 7.9433 13.9628C7.98101 14.0539 8.00042 14.1515 8.00042 14.25C8.00042 14.3485 7.98101 14.4461 7.9433 14.5372C7.90558 14.6282 7.85031 14.7109 7.78063 14.7806C7.71094 14.8503 7.62822 14.9056 7.53717 14.9433C7.44613 14.981 7.34855 15.0004 7.25 15.0004C7.15145 15.0004 7.05387 14.981 6.96283 14.9433C6.87178 14.9056 6.78906 14.8503 6.71937 14.7806L4.46937 12.5306C4.39964 12.461 4.34432 12.3783 4.30658 12.2872C4.26884 12.1962 4.24941 12.0986 4.24941 12C4.24941 11.9014 4.26884 11.8038 4.30658 11.7128C4.34432 11.6217 4.39964 11.539 4.46937 11.4694L6.71937 9.21937C6.86011 9.07864 7.05098 8.99958 7.25 8.99958C7.44902 8.99958 7.63989 9.07864 7.78063 9.21937C7.92136 9.36011 8.00042 9.55098 8.00042 9.75C8.00042 9.94902 7.92136 10.1399 7.78063 10.2806L6.81031 11.25H17V1.5H6.5V2.25C6.5 2.44891 6.42098 2.63968 6.28033 2.78033C6.13968 2.92098 5.94891 3 5.75 3C5.55109 3 5.36032 2.92098 5.21967 2.78033C5.07902 2.63968 5 2.44891 5 2.25V1.5C5 1.10218 5.15804 0.720644 5.43934 0.43934C5.72064 0.158035 6.10218 0 6.5 0H17C17.3978 0 17.7794 0.158035 18.0607 0.43934C18.342 0.720644 18.5 1.10218 18.5 1.5ZM13.25 15C13.0511 15 12.8603 15.079 12.7197 15.2197C12.579 15.3603 12.5 15.5511 12.5 15.75V16.5H2V6.75H12.1897L11.2194 7.71937C11.0786 7.86011 10.9996 8.05098 10.9996 8.25C10.9996 8.44902 11.0786 8.63989 11.2194 8.78063C11.3601 8.92136 11.551 9.00042 11.75 9.00042C11.949 9.00042 12.1399 8.92136 12.2806 8.78063L14.5306 6.53063C14.6004 6.46097 14.6557 6.37825 14.6934 6.28721C14.7312 6.19616 14.7506 6.09856 14.7506 6C14.7506 5.90144 14.7312 5.80384 14.6934 5.71279C14.6557 5.62175 14.6004 5.53903 14.5306 5.46937L12.2806 3.21937C12.1399 3.07864 11.949 2.99958 11.75 2.99958C11.551 2.99958 11.3601 3.07864 11.2194 3.21937C11.0786 3.36011 10.9996 3.55098 10.9996 3.75C10.9996 3.94902 11.0786 4.13989 11.2194 4.28063L12.1897 5.25H2C1.60218 5.25 1.22064 5.40804 0.93934 5.68934C0.658035 5.97064 0.5 6.35218 0.5 6.75V16.5C0.5 16.8978 0.658035 17.2794 0.93934 17.5607C1.22064 17.842 1.60218 18 2 18H12.5C12.8978 18 13.2794 17.842 13.5607 17.5607C13.842 17.2794 14 16.8978 14 16.5V15.75C14 15.5511 13.921 15.3603 13.7803 15.2197C13.6397 15.079 13.4489 15 13.25 15Z" fill="#161E22"/>
</svg>
