<svg width="18" height="18" viewBox="0 0 18 18" fill="none" xmlns="http://www.w3.org/2000/svg">
<path d="M18 1.5V11.25C18 11.6478 17.842 12.0294 17.5607 12.3107C17.2794 12.592 16.8978 12.75 16.5 12.75H6.31031L7.28063 13.7194C7.35031 13.7891 7.40558 13.8718 7.4433 13.9628C7.48101 14.0539 7.50042 14.1515 7.50042 14.25C7.50042 14.3485 7.48101 14.4461 7.4433 14.5372C7.40558 14.6282 7.35031 14.7109 7.28063 14.7806C7.21094 14.8503 7.12822 14.9056 7.03717 14.9433C6.94613 14.981 6.84855 15.0004 6.75 15.0004C6.65145 15.0004 6.55387 14.981 6.46283 14.9433C6.37178 14.9056 6.28906 14.8503 6.21937 14.7806L3.96937 12.5306C3.89964 12.461 3.84432 12.3783 3.80658 12.2872C3.76884 12.1962 3.74941 12.0986 3.74941 12C3.74941 11.9014 3.76884 11.8038 3.80658 11.7128C3.84432 11.6217 3.89964 11.539 3.96937 11.4694L6.21937 9.21937C6.36011 9.07864 6.55098 8.99958 6.75 8.99958C6.94902 8.99958 7.13989 9.07864 7.28063 9.21937C7.42136 9.36011 7.50042 9.55098 7.50042 9.75C7.50042 9.94902 7.42136 10.1399 7.28063 10.2806L6.31031 11.25H16.5V1.5H6V2.25C6 2.44891 5.92098 2.63968 5.78033 2.78033C5.63968 2.92098 5.44891 3 5.25 3C5.05109 3 4.86032 2.92098 4.71967 2.78033C4.57902 2.63968 4.5 2.44891 4.5 2.25V1.5C4.5 1.10218 4.65804 0.720644 4.93934 0.43934C5.22064 0.158035 5.60218 0 6 0H16.5C16.8978 0 17.2794 0.158035 17.5607 0.43934C17.842 0.720644 18 1.10218 18 1.5ZM12.75 15C12.5511 15 12.3603 15.079 12.2197 15.2197C12.079 15.3603 12 15.5511 12 15.75V16.5H1.5V6.75H11.6897L10.7194 7.71937C10.5786 7.86011 10.4996 8.05098 10.4996 8.25C10.4996 8.44902 10.5786 8.63989 10.7194 8.78063C10.8601 8.92136 11.051 9.00042 11.25 9.00042C11.449 9.00042 11.6399 8.92136 11.7806 8.78063L14.0306 6.53063C14.1004 6.46097 14.1557 6.37825 14.1934 6.28721C14.2312 6.19616 14.2506 6.09856 14.2506 6C14.2506 5.90144 14.2312 5.80384 14.1934 5.71279C14.1557 5.62175 14.1004 5.53903 14.0306 5.46937L11.7806 3.21937C11.6399 3.07864 11.449 2.99958 11.25 2.99958C11.051 2.99958 10.8601 3.07864 10.7194 3.21937C10.5786 3.36011 10.4996 3.55098 10.4996 3.75C10.4996 3.94902 10.5786 4.13989 10.7194 4.28063L11.6897 5.25H1.5C1.10218 5.25 0.720644 5.40804 0.43934 5.68934C0.158035 5.97064 0 6.35218 0 6.75V16.5C0 16.8978 0.158035 17.2794 0.43934 17.5607C0.720644 17.842 1.10218 18 1.5 18H12C12.3978 18 12.7794 17.842 13.0607 17.5607C13.342 17.2794 13.5 16.8978 13.5 16.5V15.75C13.5 15.5511 13.421 15.3603 13.2803 15.2197C13.1397 15.079 12.9489 15 12.75 15Z" fill="#92A5A8"/>
</svg>
