<svg width="16" height="11" viewBox="0 0 16 11" fill="none" xmlns="http://www.w3.org/2000/svg">
<path d="M15.8753 0.9375V5.4375C15.8753 5.58668 15.8161 5.72976 15.7106 5.83525C15.6051 5.94074 15.462 6 15.3128 6C15.1636 6 15.0206 5.94074 14.9151 5.83525C14.8096 5.72976 14.7503 5.58668 14.7503 5.4375V2.29523L8.96078 8.08547C8.90854 8.13777 8.8465 8.17926 8.77822 8.20757C8.70993 8.23587 8.63673 8.25044 8.56281 8.25044C8.48889 8.25044 8.4157 8.23587 8.34741 8.20757C8.27912 8.17926 8.21708 8.13777 8.16484 8.08547L5.75031 5.67023L1.08578 10.3355C0.980234 10.441 0.83708 10.5003 0.687813 10.5003C0.538546 10.5003 0.395392 10.441 0.289844 10.3355C0.184296 10.2299 0.125 10.0868 0.125 9.9375C0.125 9.78823 0.184296 9.64508 0.289844 9.53953L5.35234 4.47703C5.40458 4.42473 5.46662 4.38324 5.53491 4.35494C5.6032 4.32663 5.67639 4.31206 5.75031 4.31206C5.82423 4.31206 5.89743 4.32663 5.96572 4.35494C6.034 4.38324 6.09604 4.42473 6.14828 4.47703L8.56281 6.89227L13.9551 1.5H10.8128C10.6636 1.5 10.5206 1.44074 10.4151 1.33525C10.3096 1.22976 10.2503 1.08668 10.2503 0.9375C10.2503 0.788316 10.3096 0.645242 10.4151 0.539753C10.5206 0.434263 10.6636 0.375 10.8128 0.375H15.3128C15.462 0.375 15.6051 0.434263 15.7106 0.539753C15.8161 0.645242 15.8753 0.788316 15.8753 0.9375Z" fill="#0DA314"/>
</svg>
