<svg width="20" height="20" viewBox="0 0 20 20" fill="none" xmlns="http://www.w3.org/2000/svg">
<path d="M17.2922 8.1336C17.1287 8.16096 16.9828 8.25213 16.8865 8.38707C16.7903 8.52201 16.7516 8.68965 16.7789 8.85313C16.8424 9.23213 16.8743 9.61574 16.8742 10C16.8757 11.683 16.2572 13.3075 15.1367 14.5633C14.4397 13.5532 13.4595 12.7717 12.3195 12.3172C12.9319 11.8349 13.3787 11.1737 13.5979 10.4257C13.8171 9.67767 13.7977 8.87992 13.5425 8.1434C13.2873 7.40688 12.8089 6.7682 12.1739 6.31617C11.5388 5.86415 10.7787 5.62124 9.99923 5.62124C9.21974 5.62124 8.45963 5.86415 7.82459 6.31617C7.18955 6.7682 6.71116 7.40688 6.45594 8.1434C6.20071 8.87992 6.18135 9.67767 6.40053 10.4257C6.61972 11.1737 7.06656 11.8349 7.67892 12.3172C6.53893 12.7717 5.55878 13.5532 4.86173 14.5633C3.9826 13.5726 3.40835 12.3491 3.20801 11.0399C3.00768 9.73064 3.18979 8.3914 3.73246 7.18319C4.27513 5.97498 5.15524 4.94924 6.26698 4.22931C7.37872 3.50938 8.67474 3.12591 9.99923 3.12501C10.3835 3.12495 10.7671 3.15683 11.1461 3.22032C11.3088 3.246 11.4751 3.20638 11.6088 3.11008C11.7425 3.01378 11.8328 2.86859 11.8599 2.70609C11.8871 2.54359 11.8491 2.37693 11.754 2.24236C11.6589 2.10779 11.5146 2.0162 11.3524 1.98751C9.65504 1.70197 7.9109 1.96324 6.37175 2.73358C4.83261 3.50393 3.5781 4.74348 2.78937 6.27329C2.00064 7.80309 1.71849 9.54397 1.98366 11.2446C2.24884 12.9452 3.04761 14.5175 4.26465 15.7346C5.4817 16.9516 7.05404 17.7504 8.75465 18.0156C10.4553 18.2807 12.1961 17.9986 13.7259 17.2099C15.2558 16.4211 16.4953 15.1666 17.2657 13.6275C18.036 12.0883 18.2973 10.3442 18.0117 8.64688C17.9844 8.48341 17.8932 8.33749 17.7583 8.24123C17.6233 8.14498 17.4557 8.10626 17.2922 8.1336ZM7.49923 9.37501C7.49923 8.88056 7.64585 8.39721 7.92055 7.98608C8.19526 7.57496 8.5857 7.25453 9.04252 7.06531C9.49933 6.87609 10.002 6.82658 10.487 6.92305C10.9719 7.01951 11.4174 7.25761 11.767 7.60724C12.1166 7.95687 12.3547 8.40233 12.4512 8.88728C12.5477 9.37224 12.4981 9.8749 12.3089 10.3317C12.1197 10.7885 11.7993 11.179 11.3882 11.4537C10.977 11.7284 10.4937 11.875 9.99923 11.875C9.33619 11.875 8.7003 11.6116 8.23146 11.1428C7.76262 10.6739 7.49923 10.0381 7.49923 9.37501ZM5.78673 15.4297C6.23886 14.7226 6.86173 14.1406 7.59792 13.7376C8.3341 13.3345 9.15991 13.1232 9.99923 13.1232C10.8385 13.1232 11.6644 13.3345 12.4005 13.7376C13.1367 14.1406 13.7596 14.7226 14.2117 15.4297C13.0073 16.3664 11.525 16.875 9.99923 16.875C8.47343 16.875 6.99115 16.3664 5.78673 15.4297ZM18.5664 3.5672L16.0664 6.0672C16.0084 6.12531 15.9394 6.17141 15.8636 6.20286C15.7877 6.23431 15.7064 6.2505 15.6242 6.2505C15.5421 6.2505 15.4608 6.23431 15.3849 6.20286C15.309 6.17141 15.2401 6.12531 15.182 6.0672L13.932 4.8172C13.874 4.75913 13.8279 4.69019 13.7965 4.61432C13.7651 4.53845 13.7489 4.45713 13.7489 4.37501C13.7489 4.29289 13.7651 4.21157 13.7965 4.1357C13.8279 4.05983 13.874 3.99089 13.932 3.93282C14.0493 3.81555 14.2084 3.74966 14.3742 3.74966C14.4563 3.74966 14.5377 3.76584 14.6135 3.79726C14.6894 3.82869 14.7583 3.87475 14.8164 3.93282L15.6242 4.74142L17.682 2.68282C17.7401 2.62475 17.809 2.57869 17.8849 2.54726C17.9608 2.51584 18.0421 2.49966 18.1242 2.49966C18.2063 2.49966 18.2877 2.51584 18.3635 2.54726C18.4394 2.57869 18.5083 2.62475 18.5664 2.68282C18.6245 2.74089 18.6705 2.80983 18.702 2.8857C18.7334 2.96157 18.7496 3.04289 18.7496 3.12501C18.7496 3.20713 18.7334 3.28845 18.702 3.36432C18.6705 3.44019 18.6245 3.50913 18.5664 3.5672Z" fill="#33C5E0"/>
</svg>
