<svg width="17" height="16" viewBox="0 0 17 16" fill="none" xmlns="http://www.w3.org/2000/svg">
<path d="M14.3361 6.50688C14.2053 6.52877 14.0886 6.60171 14.0116 6.70966C13.9346 6.81761 13.9036 6.95172 13.9255 7.08251C13.9762 7.3857 14.0017 7.69259 14.0017 8.00001C14.0029 9.34638 13.5081 10.646 12.6117 11.6506C12.0541 10.8426 11.27 10.2174 10.358 9.85376C10.8479 9.46791 11.2053 8.939 11.3807 8.34057C11.556 7.74214 11.5405 7.10394 11.3364 6.51472C11.1322 5.92551 10.7495 5.41456 10.2414 5.05294C9.73341 4.69132 9.12532 4.49699 8.50173 4.49699C7.87814 4.49699 7.27004 4.69132 6.76201 5.05294C6.25398 5.41456 5.87127 5.92551 5.66709 6.51472C5.46291 7.10394 5.44742 7.74214 5.62277 8.34057C5.79812 8.939 6.15559 9.46791 6.64548 9.85376C5.73349 10.2174 4.94937 10.8426 4.39173 11.6506C3.68842 10.8581 3.22902 9.8793 3.06875 8.83191C2.90848 7.78451 3.05418 6.71312 3.48831 5.74655C3.92244 4.77998 4.62654 3.95939 5.51593 3.38345C6.40532 2.80751 7.44214 2.50073 8.50173 2.50001C8.80914 2.49996 9.11603 2.52546 9.41923 2.57626C9.54942 2.5968 9.68246 2.5651 9.78941 2.48806C9.89635 2.41102 9.96855 2.29487 9.9903 2.16487C10.012 2.03487 9.98159 1.90154 9.90554 1.79389C9.8295 1.68623 9.71402 1.61296 9.58423 1.59001C8.22638 1.36158 6.83106 1.57059 5.59975 2.18687C4.36843 2.80314 3.36483 3.79479 2.73384 5.01863C2.10285 6.24247 1.87713 7.63518 2.08927 8.99567C2.30141 10.3562 2.94043 11.614 3.91407 12.5877C4.8877 13.5613 6.14557 14.2003 7.50606 14.4125C8.86655 14.6246 10.2593 14.3989 11.4831 13.7679C12.7069 13.1369 13.6986 12.1333 14.3149 10.902C14.9311 9.67067 15.1402 8.27536 14.9117 6.91751C14.8898 6.78672 14.8169 6.66999 14.709 6.59299C14.601 6.51598 14.4669 6.48501 14.3361 6.50688ZM6.50173 7.50001C6.50173 7.10444 6.61902 6.71776 6.83879 6.38887C7.05855 6.05997 7.37091 5.80362 7.73636 5.65225C8.10181 5.50087 8.50394 5.46127 8.89191 5.53844C9.27987 5.61561 9.63623 5.80609 9.91594 6.08579C10.1956 6.3655 10.3861 6.72186 10.4633 7.10983C10.5405 7.49779 10.5009 7.89992 10.3495 8.26537C10.1981 8.63083 9.94176 8.94318 9.61287 9.16295C9.28397 9.38271 8.89729 9.50001 8.50173 9.50001C7.97129 9.50001 7.46258 9.28929 7.08751 8.91422C6.71244 8.53915 6.50173 8.03044 6.50173 7.50001ZM5.13173 12.3438C5.49343 11.7781 5.99173 11.3125 6.58068 10.99C7.16962 10.6676 7.83027 10.4985 8.50173 10.4985C9.17318 10.4985 9.83383 10.6676 10.4228 10.99C11.0117 11.3125 11.51 11.7781 11.8717 12.3438C10.9082 13.0931 9.72236 13.5 8.50173 13.5C7.28109 13.5 6.09527 13.0931 5.13173 12.3438ZM15.3555 2.85376L13.3555 4.85376C13.309 4.90025 13.2539 4.93712 13.1932 4.96229C13.1325 4.98745 13.0674 5.0004 13.0017 5.0004C12.936 5.0004 12.871 4.98745 12.8103 4.96229C12.7496 4.93712 12.6944 4.90025 12.648 4.85376L11.648 3.85376C11.6015 3.8073 11.5647 3.75215 11.5395 3.69146C11.5144 3.63076 11.5014 3.5657 11.5014 3.50001C11.5014 3.43431 11.5144 3.36926 11.5395 3.30856C11.5647 3.24786 11.6015 3.19271 11.648 3.14626C11.7418 3.05244 11.869 2.99973 12.0017 2.99973C12.0674 2.99973 12.1325 3.01267 12.1932 3.03781C12.2539 3.06295 12.309 3.0998 12.3555 3.14626L13.0017 3.79313L14.648 2.14626C14.6944 2.0998 14.7496 2.06295 14.8103 2.03781C14.871 2.01267 14.936 1.99973 15.0017 1.99973C15.0674 1.99973 15.1325 2.01267 15.1932 2.03781C15.2539 2.06295 15.309 2.0998 15.3555 2.14626C15.4019 2.19271 15.4388 2.24786 15.4639 2.30856C15.4891 2.36926 15.502 2.43431 15.502 2.50001C15.502 2.5657 15.4891 2.63076 15.4639 2.69146C15.4388 2.75215 15.4019 2.8073 15.3555 2.85376Z" fill="#161E22"/>
</svg>
