<svg width="16" height="15" viewBox="0 0 16 15" fill="none" xmlns="http://www.w3.org/2000/svg">
<path d="M14.375 3H1.875C1.70924 3 1.55027 2.93415 1.43306 2.81694C1.31585 2.69973 1.25 2.54076 1.25 2.375C1.25 2.20924 1.31585 2.05027 1.43306 1.93306C1.55027 1.81585 1.70924 1.75 1.875 1.75H12.5C12.6658 1.75 12.8247 1.68415 12.9419 1.56694C13.0592 1.44973 13.125 1.29076 13.125 1.125C13.125 0.95924 13.0592 0.800269 12.9419 0.683058C12.8247 0.565848 12.6658 0.5 12.5 0.5H1.875C1.37772 0.5 0.900806 0.697544 0.549175 1.04917C0.197544 1.40081 0 1.87772 0 2.375V12.375C0 12.8723 0.197544 13.3492 0.549175 13.7008C0.900806 14.0525 1.37772 14.25 1.875 14.25H14.375C14.7065 14.25 15.0245 14.1183 15.2589 13.8839C15.4933 13.6495 15.625 13.3315 15.625 13V4.25C15.625 3.91848 15.4933 3.60054 15.2589 3.36612C15.0245 3.1317 14.7065 3 14.375 3ZM14.375 13H1.875C1.70924 13 1.55027 12.9342 1.43306 12.8169C1.31585 12.6997 1.25 12.5408 1.25 12.375V4.14297C1.45068 4.21411 1.66208 4.25031 1.875 4.25H14.375V13ZM10.625 8.3125C10.625 8.12708 10.68 7.94582 10.783 7.79165C10.886 7.63748 11.0324 7.51732 11.2037 7.44636C11.375 7.37541 11.5635 7.35684 11.7454 7.39301C11.9273 7.42919 12.0943 7.51848 12.2254 7.64959C12.3565 7.7807 12.4458 7.94775 12.482 8.1296C12.5182 8.31146 12.4996 8.49996 12.4286 8.67126C12.3577 8.84257 12.2375 8.98899 12.0833 9.092C11.9292 9.19502 11.7479 9.25 11.5625 9.25C11.3139 9.25 11.0754 9.15123 10.8996 8.97541C10.7238 8.7996 10.625 8.56114 10.625 8.3125Z" fill="#33C5E0" fill-opacity="0.24"/>
</svg>
