<svg width="15" height="14" viewBox="0 0 15 14" fill="none" xmlns="http://www.w3.org/2000/svg">
<path d="M14.2504 3.25005V13.0001C14.2504 13.199 14.1714 13.3897 14.0307 13.5304C13.8901 13.671 13.6993 13.7501 13.5004 13.7501H3.75042C3.5515 13.7501 3.36074 13.671 3.22009 13.5304C3.07943 13.3897 3.00042 13.199 3.00042 13.0001C3.00042 12.8011 3.07943 12.6104 3.22009 12.4697C3.36074 12.3291 3.5515 12.2501 3.75042 12.2501H11.6901L0.969792 1.53068C0.829062 1.38995 0.75 1.19907 0.75 1.00005C0.75 0.801028 0.829062 0.610156 0.969792 0.469426C1.11052 0.328695 1.30139 0.249634 1.50042 0.249634C1.69944 0.249634 1.89031 0.328695 2.03104 0.469426L12.7504 11.1897V3.25005C12.7504 3.05114 12.8294 2.86037 12.9701 2.71972C13.1107 2.57907 13.3015 2.50005 13.5004 2.50005C13.6993 2.50005 13.8901 2.57907 14.0307 2.71972C14.1714 2.86037 14.2504 3.05114 14.2504 3.25005Z" fill="#FCFFFF"/>
</svg>
