<svg width="12" height="13" viewBox="0 0 12 13" fill="none" xmlns="http://www.w3.org/2000/svg">
<path d="M11.4221 11.7248L7.51094 5.57992L11.3702 1.33572C11.4575 1.23736 11.5025 1.10857 11.4954 0.977276C11.4883 0.845978 11.4298 0.722757 11.3325 0.634325C11.2351 0.545894 11.1068 0.49938 10.9754 0.504869C10.844 0.510358 10.7201 0.567407 10.6305 0.663647L6.95426 4.7061L4.42452 0.731729C4.37941 0.660745 4.31711 0.602292 4.24339 0.561785C4.16967 0.521277 4.08692 0.500026 4.0028 0.5H1.00385C0.914237 0.499956 0.826255 0.524002 0.749124 0.569619C0.671992 0.615235 0.608547 0.680745 0.565432 0.759288C0.522317 0.837831 0.501119 0.926518 0.504056 1.01606C0.506993 1.10561 0.533958 1.19272 0.582128 1.26827L4.49325 7.41252L0.633985 11.6598C0.588917 11.7082 0.553907 11.7651 0.530982 11.8271C0.508057 11.8892 0.497675 11.9551 0.500436 12.0212C0.503197 12.0872 0.519047 12.1521 0.547067 12.212C0.575087 12.2719 0.61472 12.3256 0.663668 12.3701C0.712617 12.4146 0.769908 12.4489 0.832221 12.4711C0.894533 12.4932 0.960628 12.5028 1.02667 12.4993C1.09272 12.4957 1.15741 12.4791 1.21698 12.4504C1.27655 12.4216 1.32983 12.3814 1.37372 12.3319L5.04993 8.28947L7.57966 12.2638C7.62514 12.3342 7.6876 12.3921 7.7613 12.432C7.83499 12.472 7.91756 12.4928 8.00139 12.4924H11.0003C11.0899 12.4924 11.1777 12.4684 11.2548 12.4228C11.3318 12.3772 11.3952 12.3117 11.4383 12.2333C11.4814 12.1549 11.5026 12.0663 11.4997 11.9768C11.4969 11.8874 11.4701 11.8003 11.4221 11.7248ZM8.27567 11.4931L1.91416 1.49937H3.72602L10.09 11.4931H8.27567Z" fill="#F0FFF9"/>
</svg>
